<svg xmlns="http://www.w3.org/2000/svg" width="1040" height="604" viewBox="0 0 1040 604" font-family="'Segoe UI',Helvetica,Arial,sans-serif">
<rect width="1040" height="604" fill="#ffffff"/>
<text x="520.0" y="34" text-anchor="middle" font-size="22" fill="#0f172a" font-weight="700">xmax — 채널간 상대 임계가 음량을 지우는 원리</text>
<text x="520.0" y="58" text-anchor="middle" font-size="13" fill="#64748b">실측: Speech Commands "yes" 한 클립의 프레임 49, SPICE 필터뱅크 + √ 압축</text>
<rect x="25" y="82" width="480" height="478" rx="8" fill="#eff6ff" stroke="#93c5fd" stroke-width="1.4"/>
<text x="265" y="106" text-anchor="middle" font-size="15" fill="#1e3a8a" font-weight="700">fixed — 절대 임계</text>
<text x="265" y="126" text-anchor="middle" font-size="11" fill="#64748b">임계가 고정 전압. 입력이 커지면 켜지는 채널이 늘어난다</text>
<text x="37" y="148" text-anchor="start" font-size="12" fill="#0f172a" font-weight="700">입력 ×1</text>
<text x="475" y="148" text-anchor="end" font-size="12" fill="#dc2626" font-weight="700">발화 6/16 채널</text>
<rect x="50.1" y="290.0" width="16.7" height="10.0" rx="1.5" fill="#cbd5e1" stroke="#94a3b8" stroke-width="0.8"/>
<text x="58.4375" y="318" text-anchor="middle" font-size="11" fill="#94a3b8" font-weight="700">0</text>
<rect x="77.0" y="287.0" width="16.7" height="13.0" rx="1.5" fill="#cbd5e1" stroke="#94a3b8" stroke-width="0.8"/>
<text x="85.3125" y="318" text-anchor="middle" font-size="11" fill="#94a3b8" font-weight="700">0</text>
<rect x="103.9" y="283.0" width="16.7" height="17.0" rx="1.5" fill="#cbd5e1" stroke="#94a3b8" stroke-width="0.8"/>
<text x="112.1875" y="318" text-anchor="middle" font-size="11" fill="#94a3b8" font-weight="700">0</text>
<rect x="130.7" y="285.1" width="16.7" height="14.9" rx="1.5" fill="#cbd5e1" stroke="#94a3b8" stroke-width="0.8"/>
<text x="139.0625" y="318" text-anchor="middle" font-size="11" fill="#94a3b8" font-weight="700">0</text>
<rect x="157.6" y="284.5" width="16.7" height="15.5" rx="1.5" fill="#cbd5e1" stroke="#94a3b8" stroke-width="0.8"/>
<text x="165.9375" y="318" text-anchor="middle" font-size="11" fill="#94a3b8" font-weight="700">0</text>
<rect x="184.5" y="281.5" width="16.7" height="18.5" rx="1.5" fill="#cbd5e1" stroke="#94a3b8" stroke-width="0.8"/>
<text x="192.8125" y="318" text-anchor="middle" font-size="11" fill="#94a3b8" font-weight="700">0</text>
<rect x="211.4" y="276.7" width="16.7" height="23.3" rx="1.5" fill="#cbd5e1" stroke="#94a3b8" stroke-width="0.8"/>
<text x="219.6875" y="318" text-anchor="middle" font-size="11" fill="#94a3b8" font-weight="700">0</text>
<rect x="238.2" y="269.0" width="16.7" height="31.0" rx="1.5" fill="#cbd5e1" stroke="#94a3b8" stroke-width="0.8"/>
<text x="246.5625" y="318" text-anchor="middle" font-size="11" fill="#94a3b8" font-weight="700">0</text>
<rect x="265.1" y="251.3" width="16.7" height="48.7" rx="1.5" fill="#fdba74" stroke="#9a3412" stroke-width="0.8"/>
<text x="273.4375" y="318" text-anchor="middle" font-size="11" fill="#9a3412" font-weight="700">1</text>
<rect x="292.0" y="205.9" width="16.7" height="94.1" rx="1.5" fill="#fdba74" stroke="#9a3412" stroke-width="0.8"/>
<text x="300.3125" y="318" text-anchor="middle" font-size="11" fill="#9a3412" font-weight="700">1</text>
<rect x="318.9" y="173.4" width="16.7" height="126.6" rx="1.5" fill="#fdba74" stroke="#9a3412" stroke-width="0.8"/>
<text x="327.1875" y="318" text-anchor="middle" font-size="11" fill="#9a3412" font-weight="700">1</text>
<rect x="345.7" y="173.2" width="16.7" height="126.8" rx="1.5" fill="#fdba74" stroke="#9a3412" stroke-width="0.8"/>
<text x="354.0625" y="318" text-anchor="middle" font-size="11" fill="#9a3412" font-weight="700">1</text>
<rect x="372.6" y="208.8" width="16.7" height="91.2" rx="1.5" fill="#fdba74" stroke="#9a3412" stroke-width="0.8"/>
<text x="380.9375" y="318" text-anchor="middle" font-size="11" fill="#9a3412" font-weight="700">1</text>
<rect x="399.5" y="247.1" width="16.7" height="52.9" rx="1.5" fill="#fdba74" stroke="#9a3412" stroke-width="0.8"/>
<text x="407.8125" y="318" text-anchor="middle" font-size="11" fill="#9a3412" font-weight="700">1</text>
<rect x="426.4" y="269.2" width="16.7" height="30.8" rx="1.5" fill="#cbd5e1" stroke="#94a3b8" stroke-width="0.8"/>
<text x="434.6875" y="318" text-anchor="middle" font-size="11" fill="#94a3b8" font-weight="700">0</text>
<rect x="453.2" y="279.2" width="16.7" height="20.8" rx="1.5" fill="#cbd5e1" stroke="#94a3b8" stroke-width="0.8"/>
<text x="461.5625" y="318" text-anchor="middle" font-size="11" fill="#94a3b8" font-weight="700">0</text>
<line x1="39" y1="255.6" x2="481" y2="255.6" stroke="#dc2626" stroke-width="2" stroke-dasharray="6 3"/>
<line x1="45" y1="300" x2="475" y2="300" stroke="#334155" stroke-width="1.3"/>
<text x="487" y="259.625" text-anchor="start" font-size="10" fill="#dc2626">임계</text>
<text x="37" y="334" text-anchor="start" font-size="12" fill="#0f172a" font-weight="700">입력 ×2</text>
<text x="475" y="334" text-anchor="end" font-size="12" fill="#dc2626" font-weight="700">발화 9/16 채널</text>
<rect x="50.1" y="476.0" width="16.7" height="10.0" rx="1.5" fill="#cbd5e1" stroke="#94a3b8" stroke-width="0.8"/>
<text x="58.4375" y="504" text-anchor="middle" font-size="11" fill="#94a3b8" font-weight="700">0</text>
<rect x="77.0" y="473.0" width="16.7" height="13.0" rx="1.5" fill="#cbd5e1" stroke="#94a3b8" stroke-width="0.8"/>
<text x="85.3125" y="504" text-anchor="middle" font-size="11" fill="#94a3b8" font-weight="700">0</text>
<rect x="103.9" y="469.0" width="16.7" height="17.0" rx="1.5" fill="#cbd5e1" stroke="#94a3b8" stroke-width="0.8"/>
<text x="112.1875" y="504" text-anchor="middle" font-size="11" fill="#94a3b8" font-weight="700">0</text>
<rect x="130.7" y="471.1" width="16.7" height="14.9" rx="1.5" fill="#cbd5e1" stroke="#94a3b8" stroke-width="0.8"/>
<text x="139.0625" y="504" text-anchor="middle" font-size="11" fill="#94a3b8" font-weight="700">0</text>
<rect x="157.6" y="470.5" width="16.7" height="15.5" rx="1.5" fill="#cbd5e1" stroke="#94a3b8" stroke-width="0.8"/>
<text x="165.9375" y="504" text-anchor="middle" font-size="11" fill="#94a3b8" font-weight="700">0</text>
<rect x="184.5" y="467.5" width="16.7" height="18.5" rx="1.5" fill="#cbd5e1" stroke="#94a3b8" stroke-width="0.8"/>
<text x="192.8125" y="504" text-anchor="middle" font-size="11" fill="#94a3b8" font-weight="700">0</text>
<rect x="211.4" y="462.7" width="16.7" height="23.3" rx="1.5" fill="#fdba74" stroke="#9a3412" stroke-width="0.8"/>
<text x="219.6875" y="504" text-anchor="middle" font-size="11" fill="#9a3412" font-weight="700">1</text>
<rect x="238.2" y="455.0" width="16.7" height="31.0" rx="1.5" fill="#fdba74" stroke="#9a3412" stroke-width="0.8"/>
<text x="246.5625" y="504" text-anchor="middle" font-size="11" fill="#9a3412" font-weight="700">1</text>
<rect x="265.1" y="437.3" width="16.7" height="48.7" rx="1.5" fill="#fdba74" stroke="#9a3412" stroke-width="0.8"/>
<text x="273.4375" y="504" text-anchor="middle" font-size="11" fill="#9a3412" font-weight="700">1</text>
<rect x="292.0" y="391.9" width="16.7" height="94.1" rx="1.5" fill="#fdba74" stroke="#9a3412" stroke-width="0.8"/>
<text x="300.3125" y="504" text-anchor="middle" font-size="11" fill="#9a3412" font-weight="700">1</text>
<rect x="318.9" y="359.4" width="16.7" height="126.6" rx="1.5" fill="#fdba74" stroke="#9a3412" stroke-width="0.8"/>
<text x="327.1875" y="504" text-anchor="middle" font-size="11" fill="#9a3412" font-weight="700">1</text>
<rect x="345.7" y="359.2" width="16.7" height="126.8" rx="1.5" fill="#fdba74" stroke="#9a3412" stroke-width="0.8"/>
<text x="354.0625" y="504" text-anchor="middle" font-size="11" fill="#9a3412" font-weight="700">1</text>
<rect x="372.6" y="394.8" width="16.7" height="91.2" rx="1.5" fill="#fdba74" stroke="#9a3412" stroke-width="0.8"/>
<text x="380.9375" y="504" text-anchor="middle" font-size="11" fill="#9a3412" font-weight="700">1</text>
<rect x="399.5" y="433.1" width="16.7" height="52.9" rx="1.5" fill="#fdba74" stroke="#9a3412" stroke-width="0.8"/>
<text x="407.8125" y="504" text-anchor="middle" font-size="11" fill="#9a3412" font-weight="700">1</text>
<rect x="426.4" y="455.2" width="16.7" height="30.8" rx="1.5" fill="#fdba74" stroke="#9a3412" stroke-width="0.8"/>
<text x="434.6875" y="504" text-anchor="middle" font-size="11" fill="#9a3412" font-weight="700">1</text>
<rect x="453.2" y="465.2" width="16.7" height="20.8" rx="1.5" fill="#cbd5e1" stroke="#94a3b8" stroke-width="0.8"/>
<text x="461.5625" y="504" text-anchor="middle" font-size="11" fill="#94a3b8" font-weight="700">0</text>
<line x1="39" y1="463.8" x2="481" y2="463.8" stroke="#dc2626" stroke-width="2" stroke-dasharray="6 3"/>
<line x1="45" y1="486" x2="475" y2="486" stroke="#334155" stroke-width="1.3"/>
<text x="487" y="467.8125" text-anchor="start" font-size="10" fill="#dc2626">임계</text>
<rect x="37" y="518" width="456" height="30" rx="5" fill="#ffffff" stroke="#93c5fd"/>
<text x="265" y="538" text-anchor="middle" font-size="13" fill="#dc2626" font-weight="700">두 이미지가 다름 ✗  음량이 그대로 샌다</text>
<rect x="530" y="82" width="480" height="478" rx="8" fill="#fef9f3" stroke="#fdba74" stroke-width="1.4"/>
<text x="770" y="106" text-anchor="middle" font-size="15" fill="#9a3412" font-weight="700">xmax — 상대 임계</text>
<text x="770" y="126" text-anchor="middle" font-size="11" fill="#64748b">임계가 그 순간 최대의 α배. 입력과 함께 따라 올라간다</text>
<text x="542" y="148" text-anchor="start" font-size="12" fill="#0f172a" font-weight="700">입력 ×1</text>
<text x="980" y="148" text-anchor="end" font-size="12" fill="#15803d" font-weight="700">발화 6/16 채널</text>
<rect x="555.1" y="290.0" width="16.7" height="10.0" rx="1.5" fill="#cbd5e1" stroke="#94a3b8" stroke-width="0.8"/>
<text x="563.4375" y="318" text-anchor="middle" font-size="11" fill="#94a3b8" font-weight="700">0</text>
<rect x="582.0" y="287.0" width="16.7" height="13.0" rx="1.5" fill="#cbd5e1" stroke="#94a3b8" stroke-width="0.8"/>
<text x="590.3125" y="318" text-anchor="middle" font-size="11" fill="#94a3b8" font-weight="700">0</text>
<rect x="608.9" y="283.0" width="16.7" height="17.0" rx="1.5" fill="#cbd5e1" stroke="#94a3b8" stroke-width="0.8"/>
<text x="617.1875" y="318" text-anchor="middle" font-size="11" fill="#94a3b8" font-weight="700">0</text>
<rect x="635.7" y="285.1" width="16.7" height="14.9" rx="1.5" fill="#cbd5e1" stroke="#94a3b8" stroke-width="0.8"/>
<text x="644.0625" y="318" text-anchor="middle" font-size="11" fill="#94a3b8" font-weight="700">0</text>
<rect x="662.6" y="284.5" width="16.7" height="15.5" rx="1.5" fill="#cbd5e1" stroke="#94a3b8" stroke-width="0.8"/>
<text x="670.9375" y="318" text-anchor="middle" font-size="11" fill="#94a3b8" font-weight="700">0</text>
<rect x="689.5" y="281.5" width="16.7" height="18.5" rx="1.5" fill="#cbd5e1" stroke="#94a3b8" stroke-width="0.8"/>
<text x="697.8125" y="318" text-anchor="middle" font-size="11" fill="#94a3b8" font-weight="700">0</text>
<rect x="716.4" y="276.7" width="16.7" height="23.3" rx="1.5" fill="#cbd5e1" stroke="#94a3b8" stroke-width="0.8"/>
<text x="724.6875" y="318" text-anchor="middle" font-size="11" fill="#94a3b8" font-weight="700">0</text>
<rect x="743.2" y="269.0" width="16.7" height="31.0" rx="1.5" fill="#cbd5e1" stroke="#94a3b8" stroke-width="0.8"/>
<text x="751.5625" y="318" text-anchor="middle" font-size="11" fill="#94a3b8" font-weight="700">0</text>
<rect x="770.1" y="251.3" width="16.7" height="48.7" rx="1.5" fill="#fdba74" stroke="#9a3412" stroke-width="0.8"/>
<text x="778.4375" y="318" text-anchor="middle" font-size="11" fill="#9a3412" font-weight="700">1</text>
<rect x="797.0" y="205.9" width="16.7" height="94.1" rx="1.5" fill="#fdba74" stroke="#9a3412" stroke-width="0.8"/>
<text x="805.3125" y="318" text-anchor="middle" font-size="11" fill="#9a3412" font-weight="700">1</text>
<rect x="823.9" y="173.4" width="16.7" height="126.6" rx="1.5" fill="#fdba74" stroke="#9a3412" stroke-width="0.8"/>
<text x="832.1875" y="318" text-anchor="middle" font-size="11" fill="#9a3412" font-weight="700">1</text>
<rect x="850.7" y="173.2" width="16.7" height="126.8" rx="1.5" fill="#fdba74" stroke="#9a3412" stroke-width="0.8"/>
<text x="859.0625" y="318" text-anchor="middle" font-size="11" fill="#9a3412" font-weight="700">1</text>
<rect x="877.6" y="208.8" width="16.7" height="91.2" rx="1.5" fill="#fdba74" stroke="#9a3412" stroke-width="0.8"/>
<text x="885.9375" y="318" text-anchor="middle" font-size="11" fill="#9a3412" font-weight="700">1</text>
<rect x="904.5" y="247.1" width="16.7" height="52.9" rx="1.5" fill="#fdba74" stroke="#9a3412" stroke-width="0.8"/>
<text x="912.8125" y="318" text-anchor="middle" font-size="11" fill="#9a3412" font-weight="700">1</text>
<rect x="931.4" y="269.2" width="16.7" height="30.8" rx="1.5" fill="#cbd5e1" stroke="#94a3b8" stroke-width="0.8"/>
<text x="939.6875" y="318" text-anchor="middle" font-size="11" fill="#94a3b8" font-weight="700">0</text>
<rect x="958.2" y="279.2" width="16.7" height="20.8" rx="1.5" fill="#cbd5e1" stroke="#94a3b8" stroke-width="0.8"/>
<text x="966.5625" y="318" text-anchor="middle" font-size="11" fill="#94a3b8" font-weight="700">0</text>
<line x1="544" y1="255.6" x2="986" y2="255.6" stroke="#dc2626" stroke-width="2" stroke-dasharray="6 3"/>
<line x1="550" y1="300" x2="980" y2="300" stroke="#334155" stroke-width="1.3"/>
<text x="992" y="259.625" text-anchor="start" font-size="10" fill="#dc2626">임계</text>
<text x="542" y="334" text-anchor="start" font-size="12" fill="#0f172a" font-weight="700">입력 ×2</text>
<text x="980" y="334" text-anchor="end" font-size="12" fill="#15803d" font-weight="700">발화 6/16 채널</text>
<rect x="555.1" y="476.0" width="16.7" height="10.0" rx="1.5" fill="#cbd5e1" stroke="#94a3b8" stroke-width="0.8"/>
<text x="563.4375" y="504" text-anchor="middle" font-size="11" fill="#94a3b8" font-weight="700">0</text>
<rect x="582.0" y="473.0" width="16.7" height="13.0" rx="1.5" fill="#cbd5e1" stroke="#94a3b8" stroke-width="0.8"/>
<text x="590.3125" y="504" text-anchor="middle" font-size="11" fill="#94a3b8" font-weight="700">0</text>
<rect x="608.9" y="469.0" width="16.7" height="17.0" rx="1.5" fill="#cbd5e1" stroke="#94a3b8" stroke-width="0.8"/>
<text x="617.1875" y="504" text-anchor="middle" font-size="11" fill="#94a3b8" font-weight="700">0</text>
<rect x="635.7" y="471.1" width="16.7" height="14.9" rx="1.5" fill="#cbd5e1" stroke="#94a3b8" stroke-width="0.8"/>
<text x="644.0625" y="504" text-anchor="middle" font-size="11" fill="#94a3b8" font-weight="700">0</text>
<rect x="662.6" y="470.5" width="16.7" height="15.5" rx="1.5" fill="#cbd5e1" stroke="#94a3b8" stroke-width="0.8"/>
<text x="670.9375" y="504" text-anchor="middle" font-size="11" fill="#94a3b8" font-weight="700">0</text>
<rect x="689.5" y="467.5" width="16.7" height="18.5" rx="1.5" fill="#cbd5e1" stroke="#94a3b8" stroke-width="0.8"/>
<text x="697.8125" y="504" text-anchor="middle" font-size="11" fill="#94a3b8" font-weight="700">0</text>
<rect x="716.4" y="462.7" width="16.7" height="23.3" rx="1.5" fill="#cbd5e1" stroke="#94a3b8" stroke-width="0.8"/>
<text x="724.6875" y="504" text-anchor="middle" font-size="11" fill="#94a3b8" font-weight="700">0</text>
<rect x="743.2" y="455.0" width="16.7" height="31.0" rx="1.5" fill="#cbd5e1" stroke="#94a3b8" stroke-width="0.8"/>
<text x="751.5625" y="504" text-anchor="middle" font-size="11" fill="#94a3b8" font-weight="700">0</text>
<rect x="770.1" y="437.3" width="16.7" height="48.7" rx="1.5" fill="#fdba74" stroke="#9a3412" stroke-width="0.8"/>
<text x="778.4375" y="504" text-anchor="middle" font-size="11" fill="#9a3412" font-weight="700">1</text>
<rect x="797.0" y="391.9" width="16.7" height="94.1" rx="1.5" fill="#fdba74" stroke="#9a3412" stroke-width="0.8"/>
<text x="805.3125" y="504" text-anchor="middle" font-size="11" fill="#9a3412" font-weight="700">1</text>
<rect x="823.9" y="359.4" width="16.7" height="126.6" rx="1.5" fill="#fdba74" stroke="#9a3412" stroke-width="0.8"/>
<text x="832.1875" y="504" text-anchor="middle" font-size="11" fill="#9a3412" font-weight="700">1</text>
<rect x="850.7" y="359.2" width="16.7" height="126.8" rx="1.5" fill="#fdba74" stroke="#9a3412" stroke-width="0.8"/>
<text x="859.0625" y="504" text-anchor="middle" font-size="11" fill="#9a3412" font-weight="700">1</text>
<rect x="877.6" y="394.8" width="16.7" height="91.2" rx="1.5" fill="#fdba74" stroke="#9a3412" stroke-width="0.8"/>
<text x="885.9375" y="504" text-anchor="middle" font-size="11" fill="#9a3412" font-weight="700">1</text>
<rect x="904.5" y="433.1" width="16.7" height="52.9" rx="1.5" fill="#fdba74" stroke="#9a3412" stroke-width="0.8"/>
<text x="912.8125" y="504" text-anchor="middle" font-size="11" fill="#9a3412" font-weight="700">1</text>
<rect x="931.4" y="455.2" width="16.7" height="30.8" rx="1.5" fill="#cbd5e1" stroke="#94a3b8" stroke-width="0.8"/>
<text x="939.6875" y="504" text-anchor="middle" font-size="11" fill="#94a3b8" font-weight="700">0</text>
<rect x="958.2" y="465.2" width="16.7" height="20.8" rx="1.5" fill="#cbd5e1" stroke="#94a3b8" stroke-width="0.8"/>
<text x="966.5625" y="504" text-anchor="middle" font-size="11" fill="#94a3b8" font-weight="700">0</text>
<line x1="544" y1="441.6" x2="986" y2="441.6" stroke="#dc2626" stroke-width="2" stroke-dasharray="6 3"/>
<line x1="550" y1="486" x2="980" y2="486" stroke="#334155" stroke-width="1.3"/>
<text x="992" y="445.625" text-anchor="start" font-size="10" fill="#dc2626">임계</text>
<rect x="542" y="518" width="456" height="30" rx="5" fill="#ffffff" stroke="#fdba74"/>
<text x="770" y="538" text-anchor="middle" font-size="13" fill="#15803d" font-weight="700">두 이미지가 동일 ✓  음량 불변</text>
<text x="45" y="588" text-anchor="start" font-size="11" fill="#64748b">가로축 = 16개 채널 (좌 166 Hz → 우 6761 Hz)   |   세로축 = 엔벨로프 크기   |   그림의 α = 0.35 (실제로는 채널마다 학습됨)</text>
</svg>