M48
; DRILL file KiCad 10.0.5 date 2026-09-09T05:32:12
; FORMAT={-:-/ absolute / metric / decimal}
; #@! TF.CreationDate,2026-09-09T05:32:12+09:00
; #@! TF.GenerationSoftware,Kicad,Pcbnew,10.0.5
; #@! TF.FileFunction,Plated,1,4,PTH
FMAT,2
METRIC
; #@! TA.AperFunction,Plated,PTH,ViaDrill
T1C0.300
; #@! TA.AperFunction,Plated,PTH,ComponentDrill
T2C0.800
; #@! TA.AperFunction,Plated,PTH,ComponentDrill
T3C1.000
%
G90
G05
T1
X3.6Y-68.5
X4.5Y-68.0
X4.5Y-73.5
X5.15Y-76.5
X5.75Y-79.0
X6.5Y-78.4
X7.1Y-77.285
X8.5Y-73.0
X9.0Y-75.9
X12.0Y-72.5
X13.0Y-82.0
X14.0Y-77.0
X15.172Y-40.083
X15.235Y-43.758
X16.5Y-48.083
X16.9Y-16.483
X16.96Y-29.051
X17.0Y-47.083
X17.043Y-33.711
X17.085Y-24.108
X17.235Y-63.062
X17.3Y-50.483
X17.318Y-67.721
X17.36Y-58.119
X18.796Y-15.22
X18.96Y-33.72
X19.005Y-31.279
X19.071Y-49.23
X19.235Y-67.731
X19.28Y-65.29
X19.468Y-41.783
X21.368Y-40.378
X21.368Y-41.383
X21.935Y-20.824
X22.018Y-35.066
X22.2Y-39.283
X22.21Y-54.835
X22.285Y-24.208
X22.3Y-69.183
X22.56Y-58.219
X23.785Y-25.508
X24.0Y-46.083
X24.06Y-59.519
X24.1Y-16.083
X24.4Y-50.283
X24.5Y-11.583
X24.5Y-37.383
X24.7Y-14.583
X25.0Y-47.083
X25.0Y-70.083
X25.085Y-38.143
X25.17Y-23.127
X25.251Y-26.555
X25.36Y-72.154
X25.445Y-57.137
X25.526Y-60.566
X26.0Y-50.583
X26.26Y-16.198
X28.585Y-15.383
X28.86Y-49.394
X29.187Y-34.683
X29.462Y-68.694
X29.602Y-30.965
X29.625Y-18.714
X29.877Y-64.975
X29.9Y-52.725
X30.5Y-9.583
X31.465Y-12.993
X31.7Y-33.783
X31.7Y-37.083
X31.74Y-47.003
X31.8Y-69.183
X32.068Y-47.733
X32.7Y-37.183
X32.76Y-14.583
X33.0Y-47.083
X33.0Y-70.083
X33.085Y-38.178
X33.2Y-51.083
X33.36Y-72.189
X33.5Y-11.083
X33.56Y-24.878
X33.835Y-58.889
X34.626Y-18.694
X34.66Y-31.028
X34.901Y-52.704
X34.935Y-65.039
X39.285Y-24.808
X39.5Y-12.993
X39.56Y-58.819
X39.585Y-33.708
X39.7Y-36.583
X39.775Y-47.003
X39.8Y-38.083
X39.86Y-67.719
X40.065Y-47.749
X40.1Y-70.483
X40.238Y-12.684
X40.524Y-35.327
X40.799Y-69.338
X42.001Y-11.719
X42.085Y-29.423
X42.1Y-14.883
X42.3Y-48.883
X42.36Y-63.433
X44.985Y-19.008
X45.0Y-95.0
X45.035Y-16.507
X45.224Y-35.027
X45.26Y-53.019
X45.31Y-50.518
X45.4Y-75.383
X45.499Y-69.038
X46.4Y-43.983
X46.5Y-75.483
X46.888Y-27.604
X46.952Y-16.517
X47.0Y-33.683
X47.035Y-21.176
X47.163Y-61.614
X47.227Y-50.528
X47.3Y-67.783
X47.31Y-55.187
X47.8Y-69.983
X48.185Y-39.083
X50.0Y-90.0
X50.16Y-40.896
X50.822Y-13.5
X52.7Y-18.383
X52.7Y-50.783
X52.815Y-63.394
X52.898Y-68.053
X52.912Y-74.108
X52.94Y-58.451
X53.23Y-29.516
X53.313Y-34.175
X53.355Y-24.573
X53.6Y-69.983
X54.651Y-49.562
X54.815Y-68.063
X54.86Y-65.622
X55.0Y-95.0
X55.066Y-15.684
X55.23Y-34.185
X55.275Y-31.744
X56.103Y-42.121
X56.185Y-40.583
X56.5Y-74.983
X56.6Y-43.483
X57.79Y-55.167
X57.8Y-69.783
X58.14Y-58.551
X58.2Y-35.783
X58.205Y-21.289
X58.555Y-24.673
X59.64Y-59.851
X59.9Y-50.483
X60.0Y-46.083
X60.055Y-25.973
X60.3Y-16.583
X60.5Y-15.083
X60.5Y-48.583
X60.5Y-71.083
X60.561Y-37.022
X60.94Y-72.486
X61.0Y-13.4
X61.025Y-57.469
X61.106Y-60.898
X61.355Y-38.608
X61.44Y-23.591
X61.521Y-27.02
X62.1Y-8.8
X62.115Y-50.541
X62.53Y-16.663
X64.44Y-49.726
X64.855Y-15.848
X65.042Y-69.026
X65.457Y-35.148
X65.457Y-65.307
X65.48Y-53.057
X65.872Y-31.429
X65.895Y-19.179
X67.32Y-47.335
X67.5Y-39.083
X67.507Y-48.113
X67.6Y-69.283
X67.735Y-13.457
X67.9Y-35.783
X68.0Y-71.083
X68.5Y-11.583
X68.6Y-48.783
X68.75Y-39.433
X68.8Y-45.883
X68.94Y-72.521
X69.0Y-15.083
X69.415Y-59.221
X69.83Y-25.343
X70.0Y-11.583
X70.481Y-53.036
X70.515Y-65.371
X70.896Y-19.158
X70.93Y-31.493
X71.0Y-44.183
X71.5Y-39.483
X75.14Y-59.151
X75.355Y-47.335
X75.44Y-68.051
X75.507Y-48.121
X75.555Y-25.273
X75.6Y-39.183
X75.6Y-71.083
X75.77Y-13.457
X75.855Y-34.173
X76.1Y-36.983
X76.379Y-69.67
X76.794Y-35.792
X77.9Y-49.283
X77.94Y-63.765
X78.355Y-29.887
X78.4Y-15.483
X80.84Y-53.351
X80.89Y-50.85
X81.079Y-69.37
X81.255Y-19.473
X81.305Y-16.972
X81.494Y-35.492
X82.743Y-61.946
X82.807Y-50.859
X82.89Y-55.519
X82.9Y-68.183
X83.158Y-28.068
X83.222Y-16.981
X83.3Y-34.183
X83.305Y-21.641
X84.0Y-81.0
X84.0Y-86.5
X86.5Y-74.5
X86.5Y-81.5
X87.0Y-76.5
X87.5Y-13.583
X89.0Y-77.0
X90.0Y-77.0
X90.5Y-73.5
X91.5Y-77.5
X92.012Y-76.885
X92.5Y-73.5
X95.5Y-71.5
X95.9Y-73.0
X97.0Y-77.0
T2
X63.66Y-6.765
X66.2Y-6.765
X68.74Y-6.765
T3
X9.235Y-26.003
X9.235Y-28.543
X9.235Y-31.083
X9.235Y-33.623
X9.24Y-50.368
X9.24Y-52.908
X9.24Y-55.448
X9.24Y-57.988
X9.768Y-41.083
X9.768Y-43.623
X11.775Y-26.003
X11.775Y-28.543
X11.775Y-31.083
X11.775Y-33.623
X11.78Y-50.368
X11.78Y-52.908
X11.78Y-55.448
X11.78Y-57.988
X19.64Y-82.5
X19.64Y-85.04
X22.18Y-82.5
X22.18Y-85.04
X24.72Y-82.5
X24.72Y-85.04
X27.26Y-82.5
X27.26Y-85.04
X29.8Y-82.5
X29.8Y-85.04
X32.34Y-82.5
X32.34Y-85.04
X34.88Y-82.5
X34.88Y-85.04
X37.42Y-82.5
X37.42Y-85.04
X39.96Y-82.5
X39.96Y-85.04
X42.5Y-82.5
X42.5Y-85.04
X44.02Y-5.9
X44.02Y-8.44
X45.04Y-82.5
X45.04Y-85.04
X46.56Y-5.9
X46.56Y-8.44
X47.58Y-82.5
X47.58Y-85.04
X49.1Y-5.9
X49.1Y-8.44
X50.12Y-82.5
X50.12Y-85.04
X51.64Y-5.9
X51.64Y-8.44
X52.66Y-82.5
X52.66Y-85.04
X54.18Y-5.9
X54.18Y-8.44
X55.2Y-82.5
X55.2Y-85.04
X56.72Y-5.9
X56.72Y-8.44
X57.74Y-82.5
X57.74Y-85.04
X59.26Y-5.9
X59.26Y-8.44
X60.28Y-82.5
X60.28Y-85.04
X62.82Y-82.5
X62.82Y-85.04
X65.36Y-82.5
X65.36Y-85.04
X67.9Y-82.5
X67.9Y-85.04
X70.44Y-82.5
X70.44Y-85.04
X72.98Y-82.5
X72.98Y-85.04
X75.52Y-82.5
X75.52Y-85.04
X78.06Y-82.5
X78.06Y-85.04
X80.6Y-82.5
X80.6Y-85.04
X88.5Y-26.083
X88.5Y-28.623
X88.5Y-31.163
X88.5Y-33.703
X88.5Y-50.583
X88.5Y-53.123
X88.5Y-55.663
X88.5Y-58.203
X91.04Y-26.083
X91.04Y-28.623
X91.04Y-31.163
X91.04Y-33.703
X91.04Y-50.583
X91.04Y-53.123
X91.04Y-55.663
X91.04Y-58.203
M30
