%TF.GenerationSoftware,KiCad,Pcbnew,10.0.5*%
%TF.CreationDate,2026-09-09T05:32:57+09:00*%
%TF.ProjectId,KWS_Layout,4b57535f-4c61-4796-9f75-742e6b696361,rev?*%
%TF.SameCoordinates,Original*%
%TF.FileFunction,Paste,Top*%
%TF.FilePolarity,Positive*%
%FSLAX46Y46*%
G04 Gerber Fmt 4.6, Leading zero omitted, Abs format (unit mm)*
G04 Created by KiCad (PCBNEW 10.0.5) date 2026-09-09 05:32:57*
%MOMM*%
%LPD*%
G01*
G04 APERTURE LIST*
G04 Aperture macros list*
%AMRoundRect*
0 Rectangle with rounded corners*
0 $1 Rounding radius*
0 $2 $3 $4 $5 $6 $7 $8 $9 X,Y pos of 4 corners*
0 Add a 4 corners polygon primitive as box body*
4,1,4,$2,$3,$4,$5,$6,$7,$8,$9,$2,$3,0*
0 Add four circle primitives for the rounded corners*
1,1,$1+$1,$2,$3*
1,1,$1+$1,$4,$5*
1,1,$1+$1,$6,$7*
1,1,$1+$1,$8,$9*
0 Add four rect primitives between the rounded corners*
20,1,$1+$1,$2,$3,$4,$5,0*
20,1,$1+$1,$4,$5,$6,$7,0*
20,1,$1+$1,$6,$7,$8,$9,0*
20,1,$1+$1,$8,$9,$2,$3,0*%
%AMFreePoly0*
4,1,131,0.155746,0.315326,0.149874,0.306646,0.144166,0.297856,0.138626,0.288960,0.133255,0.279962,0.128054,0.270863,0.123026,0.261668,0.118173,0.252380,0.113496,0.243001,0.108997,0.233536,0.104677,0.223988,0.100539,0.214360,0.096582,0.204655,0.092810,0.194878,0.089223,0.185031,0.085823,0.175118,0.082611,0.165142,0.079587,0.155108,0.076753,0.145018,0.074111,0.134877,
0.071660,0.124688,0.069402,0.114454,0.067338,0.104179,0.065468,0.093868,0.063794,0.083522,0.062314,0.073147,0.061031,0.062746,0.059945,0.052323,0.059056,0.041881,0.058364,0.031423,0.057869,0.020955,0.057572,0.010479,0.057473,0.000000,0.057572,-0.010479,0.057869,-0.020955,0.058364,-0.031423,0.059056,-0.041881,0.059945,-0.052323,0.061031,-0.062746,0.062314,-0.073147,
0.063794,-0.083522,0.065468,-0.093868,0.067338,-0.104179,0.069402,-0.114454,0.071660,-0.124688,0.074111,-0.134877,0.076753,-0.145018,0.079587,-0.155108,0.082611,-0.165142,0.085823,-0.175118,0.089223,-0.185031,0.092810,-0.194878,0.096582,-0.204655,0.100539,-0.214360,0.104677,-0.223988,0.108997,-0.233536,0.113496,-0.243001,0.118173,-0.252380,0.123026,-0.261668,0.128054,-0.270863,
0.133255,-0.279962,0.138626,-0.288960,0.144166,-0.297856,0.149874,-0.306646,0.155746,-0.315326,0.026899,-0.444180,0.018012,-0.432214,0.009370,-0.420071,0.000976,-0.407755,-0.007166,-0.395271,-0.015054,-0.382624,-0.022683,-0.369820,-0.030052,-0.356864,-0.037156,-0.343762,-0.043993,-0.330518,-0.050560,-0.317138,-0.056854,-0.303628,-0.062874,-0.289992,-0.068615,-0.276238,-0.074076,-0.262370,
-0.079255,-0.248394,-0.084150,-0.234316,-0.088758,-0.220142,-0.093078,-0.205877,-0.097107,-0.191527,-0.100845,-0.177099,-0.104289,-0.162598,-0.107439,-0.148029,-0.110293,-0.133401,-0.112849,-0.118717,-0.115107,-0.103984,-0.117066,-0.089209,-0.118725,-0.074397,-0.120083,-0.059554,-0.121140,-0.044687,-0.121896,-0.029802,-0.122349,-0.014904,-0.122500,0.000000,-0.122349,0.014904,-0.121896,0.029802,
-0.121140,0.044687,-0.120083,0.059554,-0.118725,0.074397,-0.117066,0.089209,-0.115107,0.103984,-0.112849,0.118717,-0.110293,0.133401,-0.107439,0.148029,-0.104289,0.162598,-0.100845,0.177099,-0.097107,0.191527,-0.093078,0.205877,-0.088758,0.220142,-0.084150,0.234316,-0.079255,0.248394,-0.074076,0.262370,-0.068615,0.276238,-0.062874,0.289992,-0.056854,0.303628,-0.050560,0.317138,
-0.043993,0.330518,-0.037156,0.343762,-0.030052,0.356864,-0.022683,0.369820,-0.015054,0.382624,-0.007166,0.395271,0.000976,0.407755,0.009370,0.420071,0.018012,0.432214,0.026899,0.444180,0.155746,0.315326,0.155746,0.315326,$1*%
%AMFreePoly1*
4,1,131,0.014904,0.122349,0.029802,0.121896,0.044687,0.121140,0.059554,0.120083,0.074397,0.118725,0.089209,0.117066,0.103984,0.115107,0.118717,0.112849,0.133401,0.110293,0.148029,0.107439,0.162598,0.104289,0.177099,0.100845,0.191527,0.097107,0.205877,0.093078,0.220142,0.088758,0.234316,0.084150,0.248394,0.079255,0.262370,0.074076,0.276238,0.068615,0.289992,0.062874,
0.303628,0.056854,0.317138,0.050560,0.330518,0.043993,0.343762,0.037156,0.356864,0.030052,0.369820,0.022683,0.382624,0.015054,0.395271,0.007166,0.407755,-0.000976,0.420071,-0.009370,0.432214,-0.018012,0.444180,-0.026899,0.315326,-0.155746,0.306646,-0.149874,0.297856,-0.144166,0.288960,-0.138626,0.279962,-0.133255,0.270863,-0.128054,0.261668,-0.123026,0.252380,-0.118173,
0.243001,-0.113496,0.233536,-0.108997,0.223988,-0.104677,0.214360,-0.100539,0.204655,-0.096582,0.194878,-0.092810,0.185031,-0.089223,0.175118,-0.085823,0.165142,-0.082611,0.155108,-0.079587,0.145018,-0.076753,0.134877,-0.074111,0.124688,-0.071660,0.114454,-0.069402,0.104179,-0.067338,0.093868,-0.065468,0.083522,-0.063794,0.073147,-0.062314,0.062746,-0.061031,0.052323,-0.059945,
0.041881,-0.059056,0.031423,-0.058364,0.020955,-0.057869,0.010479,-0.057572,0.000000,-0.057473,-0.010479,-0.057572,-0.020955,-0.057869,-0.031423,-0.058364,-0.041881,-0.059056,-0.052323,-0.059945,-0.062746,-0.061031,-0.073147,-0.062314,-0.083522,-0.063794,-0.093868,-0.065468,-0.104179,-0.067338,-0.114454,-0.069402,-0.124688,-0.071660,-0.134877,-0.074111,-0.145018,-0.076753,-0.155108,-0.079587,
-0.165142,-0.082611,-0.175118,-0.085823,-0.185031,-0.089223,-0.194878,-0.092810,-0.204655,-0.096582,-0.214360,-0.100539,-0.223988,-0.104677,-0.233536,-0.108997,-0.243001,-0.113496,-0.252380,-0.118173,-0.261668,-0.123026,-0.270863,-0.128054,-0.279962,-0.133255,-0.288960,-0.138626,-0.297856,-0.144166,-0.306646,-0.149874,-0.315326,-0.155746,-0.444180,-0.026899,-0.432214,-0.018012,-0.420071,-0.009370,
-0.407755,-0.000976,-0.395271,0.007166,-0.382624,0.015054,-0.369820,0.022683,-0.356864,0.030052,-0.343762,0.037156,-0.330518,0.043993,-0.317138,0.050560,-0.303628,0.056854,-0.289992,0.062874,-0.276238,0.068615,-0.262370,0.074076,-0.248394,0.079255,-0.234316,0.084150,-0.220142,0.088758,-0.205877,0.093078,-0.191527,0.097107,-0.177099,0.100845,-0.162598,0.104289,-0.148029,0.107439,
-0.133401,0.110293,-0.118717,0.112849,-0.103984,0.115107,-0.089209,0.117066,-0.074397,0.118725,-0.059554,0.120083,-0.044687,0.121140,-0.029802,0.121896,-0.014904,0.122349,0.000000,0.122500,0.014904,0.122349,0.014904,0.122349,$1*%
%AMFreePoly2*
4,1,131,0.444180,0.026899,0.432214,0.018012,0.420071,0.009370,0.407755,0.000976,0.395271,-0.007166,0.382624,-0.015054,0.369820,-0.022683,0.356864,-0.030052,0.343762,-0.037156,0.330518,-0.043993,0.317138,-0.050560,0.303628,-0.056854,0.289992,-0.062874,0.276238,-0.068615,0.262370,-0.074076,0.248394,-0.079255,0.234316,-0.084150,0.220142,-0.088758,0.205877,-0.093078,0.191527,-0.097107,
0.177099,-0.100845,0.162598,-0.104289,0.148029,-0.107439,0.133401,-0.110293,0.118717,-0.112849,0.103984,-0.115107,0.089209,-0.117066,0.074397,-0.118725,0.059554,-0.120083,0.044687,-0.121140,0.029802,-0.121896,0.014904,-0.122349,0.000000,-0.122500,-0.014904,-0.122349,-0.029802,-0.121896,-0.044687,-0.121140,-0.059554,-0.120083,-0.074397,-0.118725,-0.089209,-0.117066,-0.103984,-0.115107,
-0.118717,-0.112849,-0.133401,-0.110293,-0.148029,-0.107439,-0.162598,-0.104289,-0.177099,-0.100845,-0.191527,-0.097107,-0.205877,-0.093078,-0.220142,-0.088758,-0.234316,-0.084150,-0.248394,-0.079255,-0.262370,-0.074076,-0.276238,-0.068615,-0.289992,-0.062874,-0.303628,-0.056854,-0.317138,-0.050560,-0.330518,-0.043993,-0.343762,-0.037156,-0.356864,-0.030052,-0.369820,-0.022683,-0.382624,-0.015054,
-0.395271,-0.007166,-0.407755,0.000976,-0.420071,0.009370,-0.432214,0.018012,-0.444180,0.026899,-0.315326,0.155746,-0.306646,0.149874,-0.297856,0.144166,-0.288960,0.138626,-0.279962,0.133255,-0.270863,0.128054,-0.261668,0.123026,-0.252380,0.118173,-0.243001,0.113496,-0.233536,0.108997,-0.223988,0.104677,-0.214360,0.100539,-0.204655,0.096582,-0.194878,0.092810,-0.185031,0.089223,
-0.175118,0.085823,-0.165142,0.082611,-0.155108,0.079587,-0.145018,0.076753,-0.134877,0.074111,-0.124688,0.071660,-0.114454,0.069402,-0.104179,0.067338,-0.093868,0.065468,-0.083522,0.063794,-0.073147,0.062314,-0.062746,0.061031,-0.052323,0.059945,-0.041881,0.059056,-0.031423,0.058364,-0.020955,0.057869,-0.010479,0.057572,0.000000,0.057473,0.010479,0.057572,0.020955,0.057869,
0.031423,0.058364,0.041881,0.059056,0.052323,0.059945,0.062746,0.061031,0.073147,0.062314,0.083522,0.063794,0.093868,0.065468,0.104179,0.067338,0.114454,0.069402,0.124688,0.071660,0.134877,0.074111,0.145018,0.076753,0.155108,0.079587,0.165142,0.082611,0.175118,0.085823,0.185031,0.089223,0.194878,0.092810,0.204655,0.096582,0.214360,0.100539,0.223988,0.104677,
0.233536,0.108997,0.243001,0.113496,0.252380,0.118173,0.261668,0.123026,0.270863,0.128054,0.279962,0.133255,0.288960,0.138626,0.297856,0.144166,0.306646,0.149874,0.315326,0.155746,0.444180,0.026899,0.444180,0.026899,$1*%
%AMFreePoly3*
4,1,131,-0.018012,0.432214,-0.009370,0.420071,-0.000976,0.407755,0.007166,0.395271,0.015054,0.382624,0.022683,0.369820,0.030052,0.356864,0.037156,0.343762,0.043993,0.330518,0.050560,0.317138,0.056854,0.303628,0.062874,0.289992,0.068615,0.276238,0.074076,0.262370,0.079255,0.248394,0.084150,0.234316,0.088758,0.220142,0.093078,0.205877,0.097107,0.191527,0.100845,0.177099,
0.104289,0.162598,0.107439,0.148029,0.110293,0.133401,0.112849,0.118717,0.115107,0.103984,0.117066,0.089209,0.118725,0.074397,0.120083,0.059554,0.121140,0.044687,0.121896,0.029802,0.122349,0.014904,0.122500,0.000000,0.122349,-0.014904,0.121896,-0.029802,0.121140,-0.044687,0.120083,-0.059554,0.118725,-0.074397,0.117066,-0.089209,0.115107,-0.103984,0.112849,-0.118717,
0.110293,-0.133401,0.107439,-0.148029,0.104289,-0.162598,0.100845,-0.177099,0.097107,-0.191527,0.093078,-0.205877,0.088758,-0.220142,0.084150,-0.234316,0.079255,-0.248394,0.074076,-0.262370,0.068615,-0.276238,0.062874,-0.289992,0.056854,-0.303628,0.050560,-0.317138,0.043993,-0.330518,0.037156,-0.343762,0.030052,-0.356864,0.022683,-0.369820,0.015054,-0.382624,0.007166,-0.395271,
-0.000976,-0.407755,-0.009370,-0.420071,-0.018012,-0.432214,-0.026899,-0.444180,-0.155746,-0.315326,-0.149874,-0.306646,-0.144166,-0.297856,-0.138626,-0.288960,-0.133255,-0.279962,-0.128054,-0.270863,-0.123026,-0.261668,-0.118173,-0.252380,-0.113496,-0.243001,-0.108997,-0.233536,-0.104677,-0.223988,-0.100539,-0.214360,-0.096582,-0.204655,-0.092810,-0.194878,-0.089223,-0.185031,-0.085823,-0.175118,
-0.082611,-0.165142,-0.079587,-0.155108,-0.076753,-0.145018,-0.074111,-0.134877,-0.071660,-0.124688,-0.069402,-0.114454,-0.067338,-0.104179,-0.065468,-0.093868,-0.063794,-0.083522,-0.062314,-0.073147,-0.061031,-0.062746,-0.059945,-0.052323,-0.059056,-0.041881,-0.058364,-0.031423,-0.057869,-0.020955,-0.057572,-0.010479,-0.057473,0.000000,-0.057572,0.010479,-0.057869,0.020955,-0.058364,0.031423,
-0.059056,0.041881,-0.059945,0.052323,-0.061031,0.062746,-0.062314,0.073147,-0.063794,0.083522,-0.065468,0.093868,-0.067338,0.104179,-0.069402,0.114454,-0.071660,0.124688,-0.074111,0.134877,-0.076753,0.145018,-0.079587,0.155108,-0.082611,0.165142,-0.085823,0.175118,-0.089223,0.185031,-0.092810,0.194878,-0.096582,0.204655,-0.100539,0.214360,-0.104677,0.223988,-0.108997,0.233536,
-0.113496,0.243001,-0.118173,0.252380,-0.123026,0.261668,-0.128054,0.270863,-0.133255,0.279962,-0.138626,0.288960,-0.144166,0.297856,-0.149874,0.306646,-0.155746,0.315326,-0.026899,0.444180,-0.018012,0.432214,-0.018012,0.432214,$1*%
G04 Aperture macros list end*
%ADD10RoundRect,0.200000X-0.275000X0.200000X-0.275000X-0.200000X0.275000X-0.200000X0.275000X0.200000X0*%
%ADD11RoundRect,0.225000X0.250000X-0.225000X0.250000X0.225000X-0.250000X0.225000X-0.250000X-0.225000X0*%
%ADD12RoundRect,0.135000X-0.185000X0.135000X-0.185000X-0.135000X0.185000X-0.135000X0.185000X0.135000X0*%
%ADD13RoundRect,0.200000X0.200000X0.275000X-0.200000X0.275000X-0.200000X-0.275000X0.200000X-0.275000X0*%
%ADD14RoundRect,0.200000X0.275000X-0.200000X0.275000X0.200000X-0.275000X0.200000X-0.275000X-0.200000X0*%
%ADD15RoundRect,0.200000X-0.200000X-0.275000X0.200000X-0.275000X0.200000X0.275000X-0.200000X0.275000X0*%
%ADD16R,0.431800X1.320800*%
%ADD17RoundRect,0.225000X-0.250000X0.225000X-0.250000X-0.225000X0.250000X-0.225000X0.250000X0.225000X0*%
%ADD18RoundRect,0.112500X0.112500X-0.350000X0.112500X0.350000X-0.112500X0.350000X-0.112500X-0.350000X0*%
%ADD19RoundRect,0.150000X0.512500X0.150000X-0.512500X0.150000X-0.512500X-0.150000X0.512500X-0.150000X0*%
%ADD20RoundRect,0.225000X-0.225000X-0.250000X0.225000X-0.250000X0.225000X0.250000X-0.225000X0.250000X0*%
%ADD21RoundRect,0.225000X0.225000X0.250000X-0.225000X0.250000X-0.225000X-0.250000X0.225000X-0.250000X0*%
%ADD22RoundRect,0.051250X-0.733750X-0.153750X0.733750X-0.153750X0.733750X0.153750X-0.733750X0.153750X0*%
%ADD23RoundRect,0.147500X-0.147500X0.457500X-0.147500X-0.457500X0.147500X-0.457500X0.147500X0.457500X0*%
%ADD24RoundRect,0.147500X0.147500X-0.457500X0.147500X0.457500X-0.147500X0.457500X-0.147500X-0.457500X0*%
%ADD25RoundRect,0.150000X-0.512500X-0.150000X0.512500X-0.150000X0.512500X0.150000X-0.512500X0.150000X0*%
%ADD26RoundRect,0.112500X-0.112500X0.350000X-0.112500X-0.350000X0.112500X-0.350000X0.112500X0.350000X0*%
%ADD27FreePoly0,180.000000*%
%ADD28FreePoly1,180.000000*%
%ADD29FreePoly2,180.000000*%
%ADD30FreePoly3,180.000000*%
%ADD31R,0.570000X0.760000*%
%ADD32R,0.380000X0.760000*%
%ADD33RoundRect,0.100000X-0.100000X0.637500X-0.100000X-0.637500X0.100000X-0.637500X0.100000X0.637500X0*%
%ADD34R,1.000000X2.510000*%
%ADD35RoundRect,0.250000X-0.475000X0.250000X-0.475000X-0.250000X0.475000X-0.250000X0.475000X0.250000X0*%
G04 APERTURE END LIST*
D10*
%TO.C,R2222*%
X62030000Y-34772573D03*
X62030000Y-36422573D03*
%TD*%
D11*
%TO.C,C2215*%
X67100000Y-36375000D03*
X67100000Y-34825000D03*
%TD*%
D12*
%TO.C,R117*%
X89500000Y-82990000D03*
X89500000Y-84010000D03*
%TD*%
D13*
%TO.C,R1804*%
X38340000Y-23878173D03*
X36690000Y-23878173D03*
%TD*%
D14*
%TO.C,R2240*%
X74590000Y-49690673D03*
X74590000Y-48040673D03*
%TD*%
%TO.C,R2233*%
X30984999Y-49368733D03*
X30984999Y-47718733D03*
%TD*%
D11*
%TO.C,C2212*%
X38810000Y-36008173D03*
X38810000Y-34458173D03*
%TD*%
D15*
%TO.C,R2229*%
X61540000Y-46575673D03*
X63190000Y-46575673D03*
%TD*%
D13*
%TO.C,R102*%
X54025000Y-76100000D03*
X52375000Y-76100000D03*
%TD*%
D14*
%TO.C,R2012*%
X70685000Y-21867573D03*
X70685000Y-20217573D03*
%TD*%
%TO.C,R2205*%
X52822500Y-12565000D03*
X52822500Y-10915000D03*
%TD*%
D16*
%TO.C,U1301*%
X79030000Y-20507571D03*
X79679998Y-20507571D03*
X80330000Y-20507571D03*
X80979998Y-20507571D03*
X80979998Y-18119971D03*
X80330000Y-18119971D03*
X79679998Y-18119971D03*
X79030000Y-18119971D03*
%TD*%
D13*
%TO.C,R103*%
X50843750Y-71057573D03*
X49193750Y-71057573D03*
%TD*%
D11*
%TO.C,C1802*%
X31315000Y-21353173D03*
X31315000Y-19803173D03*
%TD*%
D17*
%TO.C,C2230*%
X61550000Y-48125000D03*
X61550000Y-49675000D03*
%TD*%
D16*
%TO.C,U1601*%
X80414999Y-64521313D03*
X79765001Y-64521313D03*
X79114999Y-64521313D03*
X78465001Y-64521313D03*
X78465001Y-66908913D03*
X79114999Y-66908913D03*
X79765001Y-66908913D03*
X80414999Y-66908913D03*
%TD*%
D10*
%TO.C,RA1302*%
X77379998Y-19182571D03*
X77379998Y-20832571D03*
%TD*%
D18*
%TO.C,D2107*%
X73820000Y-55108173D03*
X75120000Y-55108173D03*
X74470000Y-53333173D03*
%TD*%
D13*
%TO.C,R2226*%
X31059999Y-71443733D03*
X29409999Y-71443733D03*
%TD*%
D12*
%TO.C,R106*%
X9000000Y-82480000D03*
X9000000Y-83500000D03*
%TD*%
D14*
%TO.C,R1302*%
X77379998Y-23832571D03*
X77379998Y-22182571D03*
%TD*%
D19*
%TO.C,U101*%
X51750000Y-74557573D03*
X51750000Y-73607573D03*
X51750000Y-72657573D03*
X49475000Y-72657573D03*
X49475000Y-74557573D03*
%TD*%
D17*
%TO.C,C1905*%
X33189999Y-53813733D03*
X33189999Y-55363733D03*
%TD*%
%TO.C,C702*%
X23160000Y-66919933D03*
X23160000Y-68469933D03*
%TD*%
D13*
%TO.C,R2108*%
X74195000Y-56720673D03*
X72545000Y-56720673D03*
%TD*%
D20*
%TO.C,C1002*%
X56229999Y-16188773D03*
X57779999Y-16188773D03*
%TD*%
D13*
%TO.C,R2103*%
X63395000Y-58220673D03*
X61745000Y-58220673D03*
%TD*%
D21*
%TO.C,C402*%
X44060000Y-34522613D03*
X42510000Y-34522613D03*
%TD*%
D13*
%TO.C,R2001*%
X63810000Y-26342573D03*
X62160000Y-26342573D03*
%TD*%
D11*
%TO.C,C1803*%
X32915000Y-29953173D03*
X32915000Y-28403173D03*
%TD*%
D14*
%TO.C,R1912*%
X34689999Y-55413733D03*
X34689999Y-53763733D03*
%TD*%
D20*
%TO.C,C503*%
X42634998Y-15943171D03*
X44184998Y-15943171D03*
%TD*%
D10*
%TO.C,R801*%
X44959999Y-60808173D03*
X44959999Y-62458173D03*
%TD*%
D13*
%TO.C,R2102*%
X74195000Y-60220673D03*
X72545000Y-60220673D03*
%TD*%
D21*
%TO.C,C802*%
X44334999Y-68533173D03*
X42784999Y-68533173D03*
%TD*%
D14*
%TO.C,R201*%
X19334999Y-23449373D03*
X19334999Y-21799373D03*
%TD*%
D17*
%TO.C,C114*%
X12500000Y-77225000D03*
X12500000Y-78775000D03*
%TD*%
D22*
%TO.C,U1801*%
X29245000Y-22928173D03*
X29245000Y-23578173D03*
X29245000Y-24228173D03*
X29245000Y-24878173D03*
X29245000Y-25528173D03*
X29245000Y-26178173D03*
X29245000Y-26828173D03*
X34985000Y-26828173D03*
X34985000Y-26178173D03*
X34985000Y-25528173D03*
X34985000Y-24878173D03*
X34985000Y-24228173D03*
X34985000Y-23578173D03*
X34985000Y-22928173D03*
%TD*%
D14*
%TO.C,RA1102*%
X59155001Y-31973773D03*
X59155001Y-30323773D03*
%TD*%
D15*
%TO.C,R2225*%
X25959999Y-46243733D03*
X27609999Y-46243733D03*
%TD*%
D23*
%TO.C,U2203*%
X37260000Y-33378173D03*
X36310000Y-33378173D03*
X35360000Y-33378173D03*
X35360000Y-35888173D03*
X37260000Y-35888173D03*
%TD*%
D10*
%TO.C,R702*%
X23160000Y-60869933D03*
X23160000Y-62519933D03*
%TD*%
D18*
%TO.C,D2104*%
X71520000Y-55108173D03*
X72820000Y-55108173D03*
X72170000Y-53333173D03*
%TD*%
D21*
%TO.C,C1602*%
X79915000Y-68865113D03*
X78365000Y-68865113D03*
%TD*%
D16*
%TO.C,U701*%
X21509998Y-64194933D03*
X20860000Y-64194933D03*
X20209998Y-64194933D03*
X19560000Y-64194933D03*
X19560000Y-66582533D03*
X20209998Y-66582533D03*
X20860000Y-66582533D03*
X21509998Y-66582533D03*
%TD*%
D20*
%TO.C,C202*%
X19959999Y-15724373D03*
X21509999Y-15724373D03*
%TD*%
D22*
%TO.C,U1901*%
X29519999Y-56938733D03*
X29519999Y-57588733D03*
X29519999Y-58238733D03*
X29519999Y-58888733D03*
X29519999Y-59538733D03*
X29519999Y-60188733D03*
X29519999Y-60838733D03*
X35259999Y-60838733D03*
X35259999Y-60188733D03*
X35259999Y-59538733D03*
X35259999Y-58888733D03*
X35259999Y-58238733D03*
X35259999Y-57588733D03*
X35259999Y-56938733D03*
%TD*%
D11*
%TO.C,C2227*%
X31050000Y-69925000D03*
X31050000Y-68375000D03*
%TD*%
D14*
%TO.C,R1103*%
X53855001Y-34973773D03*
X53855001Y-33323773D03*
%TD*%
D21*
%TO.C,C2223*%
X63090000Y-71775673D03*
X61540000Y-71775673D03*
%TD*%
%TO.C,C2001*%
X60725000Y-25300000D03*
X59175000Y-25300000D03*
%TD*%
D17*
%TO.C,C2217*%
X70000000Y-14225000D03*
X70000000Y-15775000D03*
%TD*%
D10*
%TO.C,R203*%
X23034999Y-15699373D03*
X23034999Y-17349373D03*
%TD*%
D14*
%TO.C,R1203*%
X77255000Y-35012013D03*
X77255000Y-33362013D03*
%TD*%
D10*
%TO.C,R2009*%
X66085000Y-28817573D03*
X66085000Y-30467573D03*
%TD*%
%TO.C,R701*%
X21560000Y-60869933D03*
X21560000Y-62519933D03*
%TD*%
D14*
%TO.C,R2237*%
X66565000Y-49700673D03*
X66565000Y-48050673D03*
%TD*%
D15*
%TO.C,R1806*%
X25890000Y-27378173D03*
X27540000Y-27378173D03*
%TD*%
D11*
%TO.C,C201*%
X17834999Y-23399373D03*
X17834999Y-21849373D03*
%TD*%
%TO.C,C113*%
X96000000Y-76275000D03*
X96000000Y-74725000D03*
%TD*%
D14*
%TO.C,R2221*%
X66980000Y-15822573D03*
X66980000Y-14172573D03*
%TD*%
D11*
%TO.C,C203*%
X17834999Y-17199373D03*
X17834999Y-15649373D03*
%TD*%
D17*
%TO.C,C1904*%
X31589999Y-62413733D03*
X31589999Y-63963733D03*
%TD*%
D16*
%TO.C,U601*%
X19734999Y-54078733D03*
X20384997Y-54078733D03*
X21034999Y-54078733D03*
X21684997Y-54078733D03*
X21684997Y-51691133D03*
X21034999Y-51691133D03*
X20384997Y-51691133D03*
X19734999Y-51691133D03*
%TD*%
D20*
%TO.C,C701*%
X17885000Y-62394933D03*
X19435000Y-62394933D03*
%TD*%
D10*
%TO.C,RA902*%
X41384997Y-52728731D03*
X41384997Y-54378731D03*
%TD*%
D12*
%TO.C,R110*%
X5000000Y-82480000D03*
X5000000Y-83500000D03*
%TD*%
D10*
%TO.C,R2109*%
X65670000Y-62695673D03*
X65670000Y-64345673D03*
%TD*%
D20*
%TO.C,C2221*%
X37534999Y-46233733D03*
X39084999Y-46233733D03*
%TD*%
D13*
%TO.C,R2101*%
X63395000Y-60220673D03*
X61745000Y-60220673D03*
%TD*%
D24*
%TO.C,U2208*%
X71555000Y-16842573D03*
X72505000Y-16842573D03*
X73455000Y-16842573D03*
X73455000Y-14332573D03*
X71555000Y-14332573D03*
%TD*%
D10*
%TO.C,RA1301*%
X82679998Y-19182571D03*
X82679998Y-20832571D03*
%TD*%
D13*
%TO.C,R1908*%
X38614999Y-56388733D03*
X36964999Y-56388733D03*
%TD*%
D21*
%TO.C,C501*%
X46384998Y-21843171D03*
X44834998Y-21843171D03*
%TD*%
D10*
%TO.C,R1601*%
X80540000Y-61140113D03*
X80540000Y-62790113D03*
%TD*%
%TO.C,R1303*%
X82679998Y-16182571D03*
X82679998Y-17832571D03*
%TD*%
D18*
%TO.C,D1904*%
X36100000Y-54776233D03*
X37400000Y-54776233D03*
X36750000Y-53001233D03*
%TD*%
D16*
%TO.C,U1701*%
X78615000Y-54385671D03*
X79264998Y-54385671D03*
X79915000Y-54385671D03*
X80564998Y-54385671D03*
X80564998Y-51998071D03*
X79915000Y-51998071D03*
X79264998Y-51998071D03*
X78615000Y-51998071D03*
%TD*%
D17*
%TO.C,C2214*%
X61950000Y-14225000D03*
X61950000Y-15775000D03*
%TD*%
D14*
%TO.C,R2204*%
X48822500Y-12565000D03*
X48822500Y-10915000D03*
%TD*%
D21*
%TO.C,C1801*%
X24490000Y-24878173D03*
X22940000Y-24878173D03*
%TD*%
D14*
%TO.C,R2224*%
X75005000Y-15812573D03*
X75005000Y-14162573D03*
%TD*%
D15*
%TO.C,R2302*%
X50840427Y-43170673D03*
X52490427Y-43170673D03*
%TD*%
D10*
%TO.C,R1809*%
X29815000Y-28353173D03*
X29815000Y-30003173D03*
%TD*%
%TO.C,R2218*%
X25760000Y-34308173D03*
X25760000Y-35958173D03*
%TD*%
D20*
%TO.C,C104*%
X52325000Y-71057573D03*
X53875000Y-71057573D03*
%TD*%
%TO.C,C1101*%
X53880001Y-28848773D03*
X55430001Y-28848773D03*
%TD*%
D12*
%TO.C,R112*%
X94500000Y-82990000D03*
X94500000Y-84010000D03*
%TD*%
D17*
%TO.C,C1603*%
X82050000Y-67425000D03*
X82050000Y-68975000D03*
%TD*%
D24*
%TO.C,U2205*%
X63530000Y-16852573D03*
X64480000Y-16852573D03*
X65430000Y-16852573D03*
X65430000Y-14342573D03*
X63530000Y-14342573D03*
%TD*%
D20*
%TO.C,C2218*%
X29509999Y-46243733D03*
X31059999Y-46243733D03*
%TD*%
%TO.C,C1703*%
X78475000Y-50200000D03*
X80025000Y-50200000D03*
%TD*%
D25*
%TO.C,U103*%
X16234999Y-42808173D03*
X16234999Y-43758173D03*
X16234999Y-44708173D03*
X18509999Y-44708173D03*
X18509999Y-42808173D03*
%TD*%
D17*
%TO.C,C2229*%
X34000000Y-47775000D03*
X34000000Y-49325000D03*
%TD*%
D13*
%TO.C,R2211*%
X38835000Y-37533173D03*
X37185000Y-37533173D03*
%TD*%
D17*
%TO.C,C401*%
X46185000Y-26847613D03*
X46185000Y-28397613D03*
%TD*%
D24*
%TO.C,U2213*%
X63115000Y-50730673D03*
X64065000Y-50730673D03*
X65015000Y-50730673D03*
X65015000Y-48220673D03*
X63115000Y-48220673D03*
%TD*%
D26*
%TO.C,D1901*%
X26539999Y-63001233D03*
X25239999Y-63001233D03*
X25889999Y-64776233D03*
%TD*%
D16*
%TO.C,U1101*%
X57504999Y-30648773D03*
X56855001Y-30648773D03*
X56204999Y-30648773D03*
X55555001Y-30648773D03*
X55555001Y-33036373D03*
X56204999Y-33036373D03*
X56855001Y-33036373D03*
X57504999Y-33036373D03*
%TD*%
D11*
%TO.C,C112*%
X12500000Y-75775000D03*
X12500000Y-74225000D03*
%TD*%
D26*
%TO.C,D2006*%
X73235000Y-29455073D03*
X71935000Y-29455073D03*
X72585000Y-31230073D03*
%TD*%
D13*
%TO.C,R1901*%
X27814999Y-59888733D03*
X26164999Y-59888733D03*
%TD*%
D14*
%TO.C,R1602*%
X76840000Y-65865113D03*
X76840000Y-64215113D03*
%TD*%
D10*
%TO.C,R302*%
X22885001Y-26859373D03*
X22885001Y-28509373D03*
%TD*%
D24*
%TO.C,U2201*%
X27260000Y-16388173D03*
X28210000Y-16388173D03*
X29160000Y-16388173D03*
X29160000Y-13878173D03*
X27260000Y-13878173D03*
%TD*%
D14*
%TO.C,R501*%
X42709998Y-23368171D03*
X42709998Y-21718171D03*
%TD*%
D13*
%TO.C,R2007*%
X74610000Y-27842573D03*
X72960000Y-27842573D03*
%TD*%
D10*
%TO.C,R1002*%
X59304999Y-19188773D03*
X59304999Y-20838773D03*
%TD*%
D20*
%TO.C,C602*%
X20234998Y-49734933D03*
X21784998Y-49734933D03*
%TD*%
%TO.C,C903*%
X42909997Y-49953731D03*
X44459997Y-49953731D03*
%TD*%
D11*
%TO.C,C2002*%
X67585000Y-21817573D03*
X67585000Y-20267573D03*
%TD*%
D15*
%TO.C,R2006*%
X62160000Y-27842573D03*
X63810000Y-27842573D03*
%TD*%
D14*
%TO.C,R1910*%
X30089999Y-55413733D03*
X30089999Y-53763733D03*
%TD*%
D15*
%TO.C,R2216*%
X69980000Y-12687573D03*
X71630000Y-12687573D03*
%TD*%
D10*
%TO.C,RA501*%
X46409998Y-18718171D03*
X46409998Y-20368171D03*
%TD*%
D12*
%TO.C,R118*%
X88500000Y-82990000D03*
X88500000Y-84010000D03*
%TD*%
D26*
%TO.C,D2106*%
X72950000Y-63333173D03*
X71650000Y-63333173D03*
X72300000Y-65108173D03*
%TD*%
D13*
%TO.C,R2227*%
X39109999Y-71543733D03*
X37459999Y-71543733D03*
%TD*%
D15*
%TO.C,R2005*%
X62160000Y-22842573D03*
X63810000Y-22842573D03*
%TD*%
D26*
%TO.C,D1801*%
X26265000Y-28990673D03*
X24965000Y-28990673D03*
X25615000Y-30765673D03*
%TD*%
D21*
%TO.C,C2203*%
X27235000Y-37433173D03*
X25685000Y-37433173D03*
%TD*%
D10*
%TO.C,RA802*%
X46459999Y-63908173D03*
X46459999Y-65558173D03*
%TD*%
D17*
%TO.C,C2005*%
X69185000Y-20267573D03*
X69185000Y-21817573D03*
%TD*%
D15*
%TO.C,R2212*%
X33710000Y-12223173D03*
X35360000Y-12223173D03*
%TD*%
D16*
%TO.C,U301*%
X21234999Y-30184373D03*
X20585001Y-30184373D03*
X19934999Y-30184373D03*
X19285001Y-30184373D03*
X19285001Y-32571973D03*
X19934999Y-32571973D03*
X20585001Y-32571973D03*
X21234999Y-32571973D03*
%TD*%
D10*
%TO.C,R1101*%
X57555001Y-27323773D03*
X57555001Y-28973773D03*
%TD*%
D11*
%TO.C,C1003*%
X54100000Y-17725000D03*
X54100000Y-16175000D03*
%TD*%
D21*
%TO.C,C109*%
X47793750Y-72557573D03*
X46243750Y-72557573D03*
%TD*%
D10*
%TO.C,R1102*%
X59155001Y-27323773D03*
X59155001Y-28973773D03*
%TD*%
D13*
%TO.C,R2002*%
X74610000Y-26342573D03*
X72960000Y-26342573D03*
%TD*%
D14*
%TO.C,R2203*%
X46822500Y-12565000D03*
X46822500Y-10915000D03*
%TD*%
D15*
%TO.C,R1905*%
X26164999Y-56388733D03*
X27814999Y-56388733D03*
%TD*%
%TO.C,R2232*%
X69565000Y-46565673D03*
X71215000Y-46565673D03*
%TD*%
D16*
%TO.C,U1201*%
X80829999Y-30643213D03*
X80180001Y-30643213D03*
X79529999Y-30643213D03*
X78880001Y-30643213D03*
X78880001Y-33030813D03*
X79529999Y-33030813D03*
X80180001Y-33030813D03*
X80829999Y-33030813D03*
%TD*%
D23*
%TO.C,U2202*%
X29210000Y-33278173D03*
X28260000Y-33278173D03*
X27310000Y-33278173D03*
X27310000Y-35788173D03*
X29210000Y-35788173D03*
%TD*%
D15*
%TO.C,RA1201*%
X77230000Y-28787013D03*
X78880000Y-28787013D03*
%TD*%
D16*
%TO.C,U1501*%
X57089999Y-64526873D03*
X56440001Y-64526873D03*
X55789999Y-64526873D03*
X55140001Y-64526873D03*
X55140001Y-66914473D03*
X55789999Y-66914473D03*
X56440001Y-66914473D03*
X57089999Y-66914473D03*
%TD*%
D17*
%TO.C,C107*%
X20334999Y-42908173D03*
X20334999Y-44458173D03*
%TD*%
D26*
%TO.C,D1808*%
X28565000Y-28990673D03*
X27265000Y-28990673D03*
X27915000Y-30765673D03*
%TD*%
D24*
%TO.C,U2209*%
X27534999Y-50398733D03*
X28484999Y-50398733D03*
X29434999Y-50398733D03*
X29434999Y-47888733D03*
X27534999Y-47888733D03*
%TD*%
D16*
%TO.C,U201*%
X19460000Y-20068173D03*
X20109998Y-20068173D03*
X20760000Y-20068173D03*
X21409998Y-20068173D03*
X21409998Y-17680573D03*
X20760000Y-17680573D03*
X20109998Y-17680573D03*
X19460000Y-17680573D03*
%TD*%
D12*
%TO.C,R105*%
X10000000Y-82480000D03*
X10000000Y-83500000D03*
%TD*%
D21*
%TO.C,C1901*%
X24764999Y-58888733D03*
X23214999Y-58888733D03*
%TD*%
D26*
%TO.C,D1806*%
X36965000Y-28990673D03*
X35665000Y-28990673D03*
X36315000Y-30765673D03*
%TD*%
D20*
%TO.C,C1303*%
X78925000Y-16350000D03*
X80475000Y-16350000D03*
%TD*%
D21*
%TO.C,C1103*%
X57625000Y-34850000D03*
X56075000Y-34850000D03*
%TD*%
D10*
%TO.C,R2219*%
X33810000Y-34408173D03*
X33810000Y-36058173D03*
%TD*%
D18*
%TO.C,D1802*%
X27265000Y-20765673D03*
X28565000Y-20765673D03*
X27915000Y-18990673D03*
%TD*%
D10*
%TO.C,R2011*%
X70685000Y-28817573D03*
X70685000Y-30467573D03*
%TD*%
%TO.C,R1201*%
X80955000Y-27262013D03*
X80955000Y-28912013D03*
%TD*%
D13*
%TO.C,R1808*%
X38340000Y-22378173D03*
X36690000Y-22378173D03*
%TD*%
D14*
%TO.C,R2010*%
X66085000Y-21867573D03*
X66085000Y-20217573D03*
%TD*%
D13*
%TO.C,R1807*%
X38340000Y-27378173D03*
X36690000Y-27378173D03*
%TD*%
D27*
%TO.C,MK101*%
X46712500Y-39731924D03*
D28*
X46100000Y-40344424D03*
D29*
X46100000Y-39119424D03*
D30*
X45487500Y-39731924D03*
D31*
X46830000Y-41351924D03*
D32*
X46100000Y-41351924D03*
D31*
X45370000Y-41351924D03*
%TD*%
D33*
%TO.C,U104*%
X11075000Y-74637500D03*
X10425000Y-74637500D03*
X9775000Y-74637500D03*
X9125000Y-74637500D03*
X8475000Y-74637500D03*
X7825000Y-74637500D03*
X7175000Y-74637500D03*
X6525000Y-74637500D03*
X5875000Y-74637500D03*
X5225000Y-74637500D03*
X4575000Y-74637500D03*
X3925000Y-74637500D03*
X3925000Y-80362500D03*
X4575000Y-80362500D03*
X5225000Y-80362500D03*
X5875000Y-80362500D03*
X6525000Y-80362500D03*
X7175000Y-80362500D03*
X7825000Y-80362500D03*
X8475000Y-80362500D03*
X9125000Y-80362500D03*
X9775000Y-80362500D03*
X10425000Y-80362500D03*
X11075000Y-80362500D03*
%TD*%
D16*
%TO.C,U901*%
X43034999Y-54053731D03*
X43684997Y-54053731D03*
X44334999Y-54053731D03*
X44984997Y-54053731D03*
X44984997Y-51666131D03*
X44334999Y-51666131D03*
X43684997Y-51666131D03*
X43034999Y-51666131D03*
%TD*%
D14*
%TO.C,R1812*%
X34415000Y-21403173D03*
X34415000Y-19753173D03*
%TD*%
D21*
%TO.C,C2208*%
X71555000Y-37997573D03*
X70005000Y-37997573D03*
%TD*%
D17*
%TO.C,C1804*%
X31315000Y-28403173D03*
X31315000Y-29953173D03*
%TD*%
D26*
%TO.C,D2108*%
X64420000Y-63333173D03*
X63120000Y-63333173D03*
X63770000Y-65108173D03*
%TD*%
D17*
%TO.C,C801*%
X46459999Y-60858173D03*
X46459999Y-62408173D03*
%TD*%
D10*
%TO.C,RA1701*%
X82264998Y-53060671D03*
X82264998Y-54710671D03*
%TD*%
D11*
%TO.C,C1001*%
X54104999Y-23863773D03*
X54104999Y-22313773D03*
%TD*%
%TO.C,C2232*%
X74700000Y-70375000D03*
X74700000Y-68825000D03*
%TD*%
%TO.C,C2102*%
X67170000Y-55695673D03*
X67170000Y-54145673D03*
%TD*%
D17*
%TO.C,C1201*%
X82455000Y-27312013D03*
X82455000Y-28862013D03*
%TD*%
D11*
%TO.C,Cc2301*%
X49365427Y-43170673D03*
X49365427Y-41620673D03*
%TD*%
D13*
%TO.C,R2008*%
X74610000Y-22842573D03*
X72960000Y-22842573D03*
%TD*%
D17*
%TO.C,C1502*%
X58740001Y-67251873D03*
X58740001Y-68801873D03*
%TD*%
D22*
%TO.C,U2101*%
X65100000Y-57270673D03*
X65100000Y-57920673D03*
X65100000Y-58570673D03*
X65100000Y-59220673D03*
X65100000Y-59870673D03*
X65100000Y-60520673D03*
X65100000Y-61170673D03*
X70840000Y-61170673D03*
X70840000Y-60520673D03*
X70840000Y-59870673D03*
X70840000Y-59220673D03*
X70840000Y-58570673D03*
X70840000Y-57920673D03*
X70840000Y-57270673D03*
%TD*%
D21*
%TO.C,C703*%
X21635000Y-68294933D03*
X20085000Y-68294933D03*
%TD*%
D25*
%TO.C,U102*%
X16197499Y-39133173D03*
X16197499Y-40083173D03*
X16197499Y-41033173D03*
X18472499Y-41033173D03*
X18472499Y-39133173D03*
%TD*%
D23*
%TO.C,U2206*%
X65480000Y-33742573D03*
X64530000Y-33742573D03*
X63580000Y-33742573D03*
X63580000Y-36252573D03*
X65480000Y-36252573D03*
%TD*%
D12*
%TO.C,R108*%
X7000000Y-82480000D03*
X7000000Y-83500000D03*
%TD*%
D11*
%TO.C,C2228*%
X39100000Y-70025000D03*
X39100000Y-68475000D03*
%TD*%
D16*
%TO.C,U401*%
X44559999Y-30178813D03*
X43910001Y-30178813D03*
X43259999Y-30178813D03*
X42610001Y-30178813D03*
X42610001Y-32566413D03*
X43259999Y-32566413D03*
X43910001Y-32566413D03*
X44559999Y-32566413D03*
%TD*%
D26*
%TO.C,D1903*%
X39539999Y-63001233D03*
X38239999Y-63001233D03*
X38889999Y-64776233D03*
%TD*%
D14*
%TO.C,R2217*%
X30710000Y-15358173D03*
X30710000Y-13708173D03*
%TD*%
%TO.C,R1701*%
X78564998Y-57710671D03*
X78564998Y-56060671D03*
%TD*%
D15*
%TO.C,R2213*%
X61955000Y-12697573D03*
X63605000Y-12697573D03*
%TD*%
D12*
%TO.C,R119*%
X87500000Y-82990000D03*
X87500000Y-84010000D03*
%TD*%
D13*
%TO.C,RA201*%
X23059999Y-21924373D03*
X21409999Y-21924373D03*
%TD*%
D14*
%TO.C,RA1502*%
X58740001Y-65851873D03*
X58740001Y-64201873D03*
%TD*%
D11*
%TO.C,C603*%
X18100000Y-51275000D03*
X18100000Y-49725000D03*
%TD*%
D20*
%TO.C,C2222*%
X65090000Y-46575673D03*
X66640000Y-46575673D03*
%TD*%
D10*
%TO.C,R1403*%
X58889999Y-50041873D03*
X58889999Y-51691873D03*
%TD*%
D17*
%TO.C,C1601*%
X82040000Y-61190113D03*
X82040000Y-62740113D03*
%TD*%
D20*
%TO.C,C301*%
X17610001Y-28384373D03*
X19160001Y-28384373D03*
%TD*%
D13*
%TO.C,R2230*%
X66640000Y-71775673D03*
X64990000Y-71775673D03*
%TD*%
D14*
%TO.C,R802*%
X41259999Y-65533173D03*
X41259999Y-63883173D03*
%TD*%
D11*
%TO.C,C1403*%
X53700000Y-51575000D03*
X53700000Y-50025000D03*
%TD*%
D17*
%TO.C,C115*%
X96000000Y-77725000D03*
X96000000Y-79275000D03*
%TD*%
D16*
%TO.C,U501*%
X42760000Y-20043171D03*
X43409998Y-20043171D03*
X44060000Y-20043171D03*
X44709998Y-20043171D03*
X44709998Y-17655571D03*
X44060000Y-17655571D03*
X43409998Y-17655571D03*
X42760000Y-17655571D03*
%TD*%
D14*
%TO.C,R2201*%
X42975000Y-12565000D03*
X42975000Y-10915000D03*
%TD*%
D17*
%TO.C,C110*%
X20297499Y-39308173D03*
X20297499Y-40858173D03*
%TD*%
D11*
%TO.C,C902*%
X41384997Y-51328731D03*
X41384997Y-49778731D03*
%TD*%
D21*
%TO.C,C2224*%
X71140000Y-71875673D03*
X69590000Y-71875673D03*
%TD*%
D10*
%TO.C,R2234*%
X26034999Y-68318733D03*
X26034999Y-69968733D03*
%TD*%
D11*
%TO.C,C1401*%
X53689999Y-57741873D03*
X53689999Y-56191873D03*
%TD*%
D15*
%TO.C,R2303*%
X53940427Y-43170673D03*
X55590427Y-43170673D03*
%TD*%
D20*
%TO.C,C2205*%
X37260000Y-12223173D03*
X38810000Y-12223173D03*
%TD*%
%TO.C,C2202*%
X29235000Y-12233173D03*
X30785000Y-12233173D03*
%TD*%
D14*
%TO.C,R2236*%
X39009999Y-49358733D03*
X39009999Y-47708733D03*
%TD*%
D26*
%TO.C,D1908*%
X28839999Y-63001233D03*
X27539999Y-63001233D03*
X28189999Y-64776233D03*
%TD*%
D23*
%TO.C,U2207*%
X73530000Y-33842573D03*
X72580000Y-33842573D03*
X71630000Y-33842573D03*
X71630000Y-36352573D03*
X73530000Y-36352573D03*
%TD*%
D10*
%TO.C,R301*%
X21285001Y-26859373D03*
X21285001Y-28509373D03*
%TD*%
D14*
%TO.C,RA1402*%
X53689999Y-54691873D03*
X53689999Y-53041873D03*
%TD*%
D10*
%TO.C,RA1702*%
X76964998Y-53060671D03*
X76964998Y-54710671D03*
%TD*%
D17*
%TO.C,C403*%
X46185000Y-33047613D03*
X46185000Y-34597613D03*
%TD*%
D11*
%TO.C,C1902*%
X31589999Y-55363733D03*
X31589999Y-53813733D03*
%TD*%
D24*
%TO.C,U2204*%
X35285000Y-16378173D03*
X36235000Y-16378173D03*
X37185000Y-16378173D03*
X37185000Y-13868173D03*
X35285000Y-13868173D03*
%TD*%
D17*
%TO.C,C2213*%
X33735000Y-13748173D03*
X33735000Y-15298173D03*
%TD*%
D15*
%TO.C,R1906*%
X26164999Y-61388733D03*
X27814999Y-61388733D03*
%TD*%
D16*
%TO.C,U1001*%
X55730000Y-20532573D03*
X56379998Y-20532573D03*
X57030000Y-20532573D03*
X57679998Y-20532573D03*
X57679998Y-18144973D03*
X57030000Y-18144973D03*
X56379998Y-18144973D03*
X55730000Y-18144973D03*
%TD*%
D14*
%TO.C,R1301*%
X78979998Y-23832571D03*
X78979998Y-22182571D03*
%TD*%
D33*
%TO.C,U105*%
X94575000Y-75137500D03*
X93925000Y-75137500D03*
X93275000Y-75137500D03*
X92625000Y-75137500D03*
X91975000Y-75137500D03*
X91325000Y-75137500D03*
X90675000Y-75137500D03*
X90025000Y-75137500D03*
X89375000Y-75137500D03*
X88725000Y-75137500D03*
X88075000Y-75137500D03*
X87425000Y-75137500D03*
X87425000Y-80862500D03*
X88075000Y-80862500D03*
X88725000Y-80862500D03*
X89375000Y-80862500D03*
X90025000Y-80862500D03*
X90675000Y-80862500D03*
X91325000Y-80862500D03*
X91975000Y-80862500D03*
X92625000Y-80862500D03*
X93275000Y-80862500D03*
X93925000Y-80862500D03*
X94575000Y-80862500D03*
%TD*%
D14*
%TO.C,RA301*%
X17585001Y-31509373D03*
X17585001Y-29859373D03*
%TD*%
D21*
%TO.C,C1701*%
X82239998Y-56185671D03*
X80689998Y-56185671D03*
%TD*%
D20*
%TO.C,C1501*%
X53465001Y-62726873D03*
X55015001Y-62726873D03*
%TD*%
%TO.C,C2206*%
X65505000Y-12697573D03*
X67055000Y-12697573D03*
%TD*%
D14*
%TO.C,RA302*%
X22885001Y-31509373D03*
X22885001Y-29859373D03*
%TD*%
D18*
%TO.C,D2007*%
X74235000Y-21230073D03*
X75535000Y-21230073D03*
X74885000Y-19455073D03*
%TD*%
%TO.C,D1805*%
X24965000Y-20765673D03*
X26265000Y-20765673D03*
X25615000Y-18990673D03*
%TD*%
D17*
%TO.C,C2226*%
X25950000Y-47775000D03*
X25950000Y-49325000D03*
%TD*%
D14*
%TO.C,R1202*%
X77255000Y-31987013D03*
X77255000Y-30337013D03*
%TD*%
D10*
%TO.C,R602*%
X23309998Y-52734933D03*
X23309998Y-54384933D03*
%TD*%
D34*
%TO.C,JP101*%
X47460000Y-95655000D03*
X50000000Y-92345000D03*
X52540000Y-95655000D03*
%TD*%
D21*
%TO.C,C303*%
X21360001Y-34284373D03*
X19810001Y-34284373D03*
%TD*%
D22*
%TO.C,U2001*%
X65515000Y-23392573D03*
X65515000Y-24042573D03*
X65515000Y-24692573D03*
X65515000Y-25342573D03*
X65515000Y-25992573D03*
X65515000Y-26642573D03*
X65515000Y-27292573D03*
X71255000Y-27292573D03*
X71255000Y-26642573D03*
X71255000Y-25992573D03*
X71255000Y-25342573D03*
X71255000Y-24692573D03*
X71255000Y-24042573D03*
X71255000Y-23392573D03*
%TD*%
D14*
%TO.C,R2206*%
X54822500Y-12565000D03*
X54822500Y-10915000D03*
%TD*%
%TO.C,R1603*%
X76840000Y-68890113D03*
X76840000Y-67240113D03*
%TD*%
D10*
%TO.C,RA1202*%
X82455000Y-30362013D03*
X82455000Y-32012013D03*
%TD*%
%TO.C,R603*%
X23309998Y-49709933D03*
X23309998Y-51359933D03*
%TD*%
D18*
%TO.C,D1807*%
X37965000Y-20765673D03*
X39265000Y-20765673D03*
X38615000Y-18990673D03*
%TD*%
D12*
%TO.C,R114*%
X92500000Y-82990000D03*
X92500000Y-84010000D03*
%TD*%
D20*
%TO.C,C2225*%
X73115000Y-46565673D03*
X74665000Y-46565673D03*
%TD*%
D17*
%TO.C,C2201*%
X50822500Y-10965000D03*
X50822500Y-12515000D03*
%TD*%
D11*
%TO.C,C2216*%
X75100000Y-36475000D03*
X75100000Y-34925000D03*
%TD*%
D14*
%TO.C,R101*%
X55500000Y-75907573D03*
X55500000Y-74257573D03*
%TD*%
D11*
%TO.C,C2003*%
X69185000Y-30417573D03*
X69185000Y-28867573D03*
%TD*%
D14*
%TO.C,R803*%
X41259999Y-68558173D03*
X41259999Y-66908173D03*
%TD*%
D10*
%TO.C,R1703*%
X82264998Y-50060671D03*
X82264998Y-51710671D03*
%TD*%
D14*
%TO.C,R2208*%
X58822500Y-12565000D03*
X58822500Y-10915000D03*
%TD*%
%TO.C,R303*%
X17585001Y-34509373D03*
X17585001Y-32859373D03*
%TD*%
%TO.C,R502*%
X41109998Y-23368171D03*
X41109998Y-21718171D03*
%TD*%
%TO.C,R2202*%
X44822500Y-12565000D03*
X44822500Y-10915000D03*
%TD*%
D23*
%TO.C,U2214*%
X65065000Y-67620673D03*
X64115000Y-67620673D03*
X63165000Y-67620673D03*
X63165000Y-70130673D03*
X65065000Y-70130673D03*
%TD*%
D21*
%TO.C,C2207*%
X63505000Y-37897573D03*
X61955000Y-37897573D03*
%TD*%
D10*
%TO.C,R2111*%
X70270000Y-62695673D03*
X70270000Y-64345673D03*
%TD*%
D13*
%TO.C,R1904*%
X38614999Y-57888733D03*
X36964999Y-57888733D03*
%TD*%
D25*
%TO.C,U2301*%
X51127927Y-39620673D03*
X51127927Y-40570673D03*
X51127927Y-41520673D03*
X53402927Y-41520673D03*
X53402927Y-39620673D03*
%TD*%
D18*
%TO.C,D1902*%
X27539999Y-54776233D03*
X28839999Y-54776233D03*
X28189999Y-53001233D03*
%TD*%
D10*
%TO.C,R1501*%
X57140001Y-61201873D03*
X57140001Y-62851873D03*
%TD*%
D14*
%TO.C,RA1002*%
X54104999Y-20813773D03*
X54104999Y-19163773D03*
%TD*%
D18*
%TO.C,D1804*%
X35665000Y-20765673D03*
X36965000Y-20765673D03*
X36315000Y-18990673D03*
%TD*%
D13*
%TO.C,R1902*%
X38614999Y-59888733D03*
X36964999Y-59888733D03*
%TD*%
D16*
%TO.C,U801*%
X44834998Y-64189373D03*
X44185000Y-64189373D03*
X43534998Y-64189373D03*
X42885000Y-64189373D03*
X42885000Y-66576973D03*
X43534998Y-66576973D03*
X44185000Y-66576973D03*
X44834998Y-66576973D03*
%TD*%
D13*
%TO.C,R1907*%
X38614999Y-61388733D03*
X36964999Y-61388733D03*
%TD*%
%TO.C,R1801*%
X27540000Y-25878173D03*
X25890000Y-25878173D03*
%TD*%
D23*
%TO.C,U2210*%
X29484999Y-67288733D03*
X28534999Y-67288733D03*
X27584999Y-67288733D03*
X27584999Y-69798733D03*
X29484999Y-69798733D03*
%TD*%
D24*
%TO.C,U2212*%
X35559999Y-50388733D03*
X36509999Y-50388733D03*
X37459999Y-50388733D03*
X37459999Y-47878733D03*
X35559999Y-47878733D03*
%TD*%
%TO.C,U2216*%
X71140000Y-50720673D03*
X72090000Y-50720673D03*
X73040000Y-50720673D03*
X73040000Y-48210673D03*
X71140000Y-48210673D03*
%TD*%
D17*
%TO.C,C1805*%
X32915000Y-19803173D03*
X32915000Y-21353173D03*
%TD*%
D11*
%TO.C,C2211*%
X30760000Y-35908173D03*
X30760000Y-34358173D03*
%TD*%
D14*
%TO.C,RA702*%
X23160000Y-65519933D03*
X23160000Y-63869933D03*
%TD*%
D21*
%TO.C,C1301*%
X82654998Y-22307571D03*
X81104998Y-22307571D03*
%TD*%
D35*
%TO.C,C103*%
X12567591Y-41208173D03*
X12567591Y-43108173D03*
%TD*%
D21*
%TO.C,C2101*%
X60325000Y-59150000D03*
X58775000Y-59150000D03*
%TD*%
D17*
%TO.C,C2104*%
X67170000Y-62745673D03*
X67170000Y-64295673D03*
%TD*%
D13*
%TO.C,R2214*%
X67055000Y-37897573D03*
X65405000Y-37897573D03*
%TD*%
D14*
%TO.C,RA1501*%
X53440001Y-65851873D03*
X53440001Y-64201873D03*
%TD*%
%TO.C,RA1101*%
X53855001Y-31973773D03*
X53855001Y-30323773D03*
%TD*%
D18*
%TO.C,D2004*%
X71935000Y-21230073D03*
X73235000Y-21230073D03*
X72585000Y-19455073D03*
%TD*%
D26*
%TO.C,D1803*%
X39265000Y-28990673D03*
X37965000Y-28990673D03*
X38615000Y-30765673D03*
%TD*%
D21*
%TO.C,C1202*%
X80330000Y-34987013D03*
X78780000Y-34987013D03*
%TD*%
D10*
%TO.C,R2223*%
X70080000Y-34872573D03*
X70080000Y-36522573D03*
%TD*%
%TO.C,R1909*%
X30089999Y-62363733D03*
X30089999Y-64013733D03*
%TD*%
D14*
%TO.C,RA602*%
X18109998Y-54359933D03*
X18109998Y-52709933D03*
%TD*%
D13*
%TO.C,R2210*%
X30785000Y-37433173D03*
X29135000Y-37433173D03*
%TD*%
D11*
%TO.C,C1302*%
X77379998Y-17782571D03*
X77379998Y-16232571D03*
%TD*%
D13*
%TO.C,R2104*%
X74195000Y-58220673D03*
X72545000Y-58220673D03*
%TD*%
D10*
%TO.C,RA402*%
X46185000Y-29897613D03*
X46185000Y-31547613D03*
%TD*%
D15*
%TO.C,R2228*%
X33984999Y-46233733D03*
X35634999Y-46233733D03*
%TD*%
D20*
%TO.C,C2209*%
X73530000Y-12687573D03*
X75080000Y-12687573D03*
%TD*%
%TO.C,C1402*%
X55814999Y-50066873D03*
X57364999Y-50066873D03*
%TD*%
D13*
%TO.C,RA1401*%
X58914999Y-56266873D03*
X57264999Y-56266873D03*
%TD*%
D10*
%TO.C,R1502*%
X58740001Y-61201873D03*
X58740001Y-62851873D03*
%TD*%
%TO.C,R1811*%
X34415000Y-28353173D03*
X34415000Y-30003173D03*
%TD*%
D15*
%TO.C,RA801*%
X41234999Y-62333173D03*
X42884999Y-62333173D03*
%TD*%
D23*
%TO.C,U2215*%
X73115000Y-67720673D03*
X72165000Y-67720673D03*
X71215000Y-67720673D03*
X71215000Y-70230673D03*
X73115000Y-70230673D03*
%TD*%
D14*
%TO.C,R1810*%
X29815000Y-21403173D03*
X29815000Y-19753173D03*
%TD*%
D13*
%TO.C,RA601*%
X23334998Y-55934933D03*
X21684998Y-55934933D03*
%TD*%
D20*
%TO.C,C102*%
X45297500Y-43026924D03*
X46847500Y-43026924D03*
%TD*%
D17*
%TO.C,C2105*%
X68770000Y-54145673D03*
X68770000Y-55695673D03*
%TD*%
D10*
%TO.C,RA1602*%
X82040000Y-64240113D03*
X82040000Y-65890113D03*
%TD*%
D14*
%TO.C,R402*%
X40985000Y-31522613D03*
X40985000Y-29872613D03*
%TD*%
D21*
%TO.C,C1503*%
X57175000Y-68700000D03*
X55625000Y-68700000D03*
%TD*%
D18*
%TO.C,D1907*%
X38750000Y-54776233D03*
X40050000Y-54776233D03*
X39400000Y-53001233D03*
%TD*%
D10*
%TO.C,R2238*%
X61615000Y-68650673D03*
X61615000Y-70300673D03*
%TD*%
D12*
%TO.C,R104*%
X11000000Y-82490000D03*
X11000000Y-83510000D03*
%TD*%
D21*
%TO.C,C2204*%
X35285000Y-37533173D03*
X33735000Y-37533173D03*
%TD*%
D26*
%TO.C,D2101*%
X61950000Y-63333173D03*
X60650000Y-63333173D03*
X61300000Y-65108173D03*
%TD*%
D10*
%TO.C,R2239*%
X69665000Y-68750673D03*
X69665000Y-70400673D03*
%TD*%
D14*
%TO.C,R2112*%
X70270000Y-55745673D03*
X70270000Y-54095673D03*
%TD*%
D13*
%TO.C,R2003*%
X63810000Y-24342573D03*
X62160000Y-24342573D03*
%TD*%
D14*
%TO.C,R601*%
X19609998Y-57459933D03*
X19609998Y-55809933D03*
%TD*%
%TO.C,RA202*%
X17834999Y-20349373D03*
X17834999Y-18699373D03*
%TD*%
D17*
%TO.C,C803*%
X46459999Y-67058173D03*
X46459999Y-68608173D03*
%TD*%
D13*
%TO.C,R1903*%
X27814999Y-57888733D03*
X26164999Y-57888733D03*
%TD*%
D21*
%TO.C,C901*%
X46659997Y-55853731D03*
X45109997Y-55853731D03*
%TD*%
D15*
%TO.C,RA401*%
X40960000Y-28322613D03*
X42610000Y-28322613D03*
%TD*%
D14*
%TO.C,RA701*%
X17860000Y-65519933D03*
X17860000Y-63869933D03*
%TD*%
D13*
%TO.C,R2004*%
X74610000Y-24342573D03*
X72960000Y-24342573D03*
%TD*%
D11*
%TO.C,C1702*%
X76964998Y-51660671D03*
X76964998Y-50110671D03*
%TD*%
D14*
%TO.C,R703*%
X17860000Y-68519933D03*
X17860000Y-66869933D03*
%TD*%
D12*
%TO.C,R115*%
X91500000Y-82990000D03*
X91500000Y-84010000D03*
%TD*%
D18*
%TO.C,D1905*%
X24950000Y-54776233D03*
X26250000Y-54776233D03*
X25600000Y-53001233D03*
%TD*%
%TO.C,D2002*%
X63535000Y-21230073D03*
X64835000Y-21230073D03*
X64185000Y-19455073D03*
%TD*%
%TO.C,D2102*%
X63120000Y-55108173D03*
X64420000Y-55108173D03*
X63770000Y-53333173D03*
%TD*%
D11*
%TO.C,C105*%
X14397499Y-40858173D03*
X14397499Y-39308173D03*
%TD*%
D10*
%TO.C,R1003*%
X59304999Y-16163773D03*
X59304999Y-17813773D03*
%TD*%
D14*
%TO.C,R1503*%
X53440001Y-68851873D03*
X53440001Y-67201873D03*
%TD*%
D13*
%TO.C,RA1001*%
X59329999Y-22388773D03*
X57679999Y-22388773D03*
%TD*%
D11*
%TO.C,C1903*%
X33189999Y-63963733D03*
X33189999Y-62413733D03*
%TD*%
D10*
%TO.C,R903*%
X46684997Y-49728731D03*
X46684997Y-51378731D03*
%TD*%
D23*
%TO.C,U2211*%
X37534999Y-67388733D03*
X36584999Y-67388733D03*
X35634999Y-67388733D03*
X35634999Y-69898733D03*
X37534999Y-69898733D03*
%TD*%
D17*
%TO.C,C1102*%
X59155001Y-33373773D03*
X59155001Y-34923773D03*
%TD*%
D15*
%TO.C,R2209*%
X25685000Y-12233173D03*
X27335000Y-12233173D03*
%TD*%
D10*
%TO.C,R1911*%
X34689999Y-62363733D03*
X34689999Y-64013733D03*
%TD*%
%TO.C,R1402*%
X58889999Y-53066873D03*
X58889999Y-54716873D03*
%TD*%
%TO.C,R401*%
X44685000Y-26797613D03*
X44685000Y-28447613D03*
%TD*%
D15*
%TO.C,R2105*%
X61745000Y-56720673D03*
X63395000Y-56720673D03*
%TD*%
D10*
%TO.C,R202*%
X23034999Y-18724373D03*
X23034999Y-20374373D03*
%TD*%
D18*
%TO.C,D2105*%
X60800000Y-55108173D03*
X62100000Y-55108173D03*
X61450000Y-53333173D03*
%TD*%
D13*
%TO.C,R1802*%
X38340000Y-25878173D03*
X36690000Y-25878173D03*
%TD*%
D21*
%TO.C,C2220*%
X35559999Y-71543733D03*
X34009999Y-71543733D03*
%TD*%
D14*
%TO.C,R2207*%
X56822500Y-12565000D03*
X56822500Y-10915000D03*
%TD*%
D10*
%TO.C,R503*%
X46409998Y-15718171D03*
X46409998Y-17368171D03*
%TD*%
D12*
%TO.C,R116*%
X90500000Y-82990000D03*
X90500000Y-84010000D03*
%TD*%
D11*
%TO.C,C601*%
X18109998Y-57409933D03*
X18109998Y-55859933D03*
%TD*%
D14*
%TO.C,R902*%
X41384997Y-57378731D03*
X41384997Y-55728731D03*
%TD*%
D15*
%TO.C,R1805*%
X25890000Y-22378173D03*
X27540000Y-22378173D03*
%TD*%
D13*
%TO.C,R2107*%
X74195000Y-61720673D03*
X72545000Y-61720673D03*
%TD*%
%TO.C,R2215*%
X75105000Y-37997573D03*
X73455000Y-37997573D03*
%TD*%
D17*
%TO.C,C106*%
X14434999Y-43008173D03*
X14434999Y-44558173D03*
%TD*%
D26*
%TO.C,D2003*%
X75535000Y-29455073D03*
X74235000Y-29455073D03*
X74885000Y-31230073D03*
%TD*%
D15*
%TO.C,R2106*%
X61745000Y-61720673D03*
X63395000Y-61720673D03*
%TD*%
D14*
%TO.C,R1001*%
X55604999Y-23913773D03*
X55604999Y-22263773D03*
%TD*%
D26*
%TO.C,D2001*%
X62535000Y-29455073D03*
X61235000Y-29455073D03*
X61885000Y-31230073D03*
%TD*%
D14*
%TO.C,R901*%
X42984997Y-57378731D03*
X42984997Y-55728731D03*
%TD*%
D13*
%TO.C,R1803*%
X27540000Y-23878173D03*
X25890000Y-23878173D03*
%TD*%
D17*
%TO.C,C2301*%
X55365427Y-39895673D03*
X55365427Y-41445673D03*
%TD*%
D15*
%TO.C,RA1601*%
X76815000Y-62665113D03*
X78465000Y-62665113D03*
%TD*%
D21*
%TO.C,C111*%
X47793750Y-71057573D03*
X46243750Y-71057573D03*
%TD*%
D16*
%TO.C,U1401*%
X55315000Y-54410673D03*
X55964998Y-54410673D03*
X56615000Y-54410673D03*
X57264998Y-54410673D03*
X57264998Y-52023073D03*
X56615000Y-52023073D03*
X55964998Y-52023073D03*
X55315000Y-52023073D03*
%TD*%
D26*
%TO.C,D2008*%
X64835000Y-29455073D03*
X63535000Y-29455073D03*
X64185000Y-31230073D03*
%TD*%
D14*
%TO.C,R2301*%
X49365427Y-40220673D03*
X49365427Y-38570673D03*
%TD*%
D11*
%TO.C,C2231*%
X66600000Y-70275000D03*
X66600000Y-68725000D03*
%TD*%
D17*
%TO.C,C2210*%
X25710000Y-13758173D03*
X25710000Y-15308173D03*
%TD*%
%TO.C,C1203*%
X82450000Y-33475000D03*
X82450000Y-35025000D03*
%TD*%
%TO.C,C2004*%
X67585000Y-28867573D03*
X67585000Y-30417573D03*
%TD*%
%TO.C,C302*%
X22885001Y-32909373D03*
X22885001Y-34459373D03*
%TD*%
D14*
%TO.C,R1702*%
X76964998Y-57710671D03*
X76964998Y-56060671D03*
%TD*%
D11*
%TO.C,C502*%
X41109998Y-17318171D03*
X41109998Y-15768171D03*
%TD*%
D10*
%TO.C,R2235*%
X34084999Y-68418733D03*
X34084999Y-70068733D03*
%TD*%
D14*
%TO.C,R1401*%
X55189999Y-57791873D03*
X55189999Y-56141873D03*
%TD*%
D21*
%TO.C,C108*%
X47793750Y-74407573D03*
X46243750Y-74407573D03*
%TD*%
D26*
%TO.C,D1906*%
X37239999Y-63001233D03*
X35939999Y-63001233D03*
X36589999Y-64776233D03*
%TD*%
D18*
%TO.C,D2005*%
X61235000Y-21230073D03*
X62535000Y-21230073D03*
X61885000Y-19455073D03*
%TD*%
D12*
%TO.C,R109*%
X6000000Y-82480000D03*
X6000000Y-83500000D03*
%TD*%
D17*
%TO.C,C2233*%
X69600000Y-48075000D03*
X69600000Y-49625000D03*
%TD*%
D26*
%TO.C,D2103*%
X75450000Y-63312500D03*
X74150000Y-63312500D03*
X74800000Y-65087500D03*
%TD*%
D10*
%TO.C,RA502*%
X41109998Y-18718171D03*
X41109998Y-20368171D03*
%TD*%
D12*
%TO.C,R107*%
X8000000Y-82480000D03*
X8000000Y-83500000D03*
%TD*%
%TO.C,R113*%
X93500000Y-82990000D03*
X93500000Y-84010000D03*
%TD*%
D14*
%TO.C,R2110*%
X65670000Y-55745673D03*
X65670000Y-54095673D03*
%TD*%
D21*
%TO.C,C2219*%
X27509999Y-71443733D03*
X25959999Y-71443733D03*
%TD*%
D12*
%TO.C,R111*%
X4000000Y-82480000D03*
X4000000Y-83500000D03*
%TD*%
D11*
%TO.C,C2103*%
X68770000Y-64295673D03*
X68770000Y-62745673D03*
%TD*%
D14*
%TO.C,R2220*%
X38735000Y-15348173D03*
X38735000Y-13698173D03*
%TD*%
%TO.C,R403*%
X40985000Y-34547613D03*
X40985000Y-32897613D03*
%TD*%
D13*
%TO.C,R2231*%
X74690000Y-71875673D03*
X73040000Y-71875673D03*
%TD*%
D10*
%TO.C,RA901*%
X46684997Y-52728731D03*
X46684997Y-54378731D03*
%TD*%
D11*
%TO.C,C101*%
X55400000Y-72657573D03*
X55400000Y-71107573D03*
%TD*%
M02*
